<svg width="22" height="16" viewBox="0 0 22 16" fill="none" xmlns="http://www.w3.org/2000/svg">
<g id="01 align center">
<path id="Vector" d="M21.5081 7.272C20.7276 5.56533 17.6672 0 11.0005 0C4.33387 0 1.27343 5.56533 0.492981 7.272C0.388215 7.50071 0.333984 7.74932 0.333984 8.00089C0.333984 8.25246 0.388215 8.50107 0.492981 8.72978C1.27343 10.4347 4.33387 16 11.0005 16C17.6672 16 20.7276 10.4347 21.5081 8.728C21.6126 8.49954 21.6668 8.25125 21.6668 8C21.6668 7.74875 21.6126 7.50046 21.5081 7.272ZM11.0005 14.2222C5.39431 14.2222 2.77831 9.45244 2.11165 8.00978C2.77831 6.54756 5.39431 1.77778 11.0005 1.77778C16.5934 1.77778 19.2103 6.52711 19.8894 8C19.2103 9.47289 16.5934 14.2222 11.0005 14.2222Z" fill="#141D24"/>
<path id="Vector_2" d="M11.0001 3.55591C10.1211 3.55591 9.26179 3.81657 8.53091 4.30493C7.80002 4.79329 7.23037 5.48742 6.89398 6.29954C6.55759 7.11165 6.46957 8.00528 6.64106 8.86742C6.81255 9.72956 7.23585 10.5215 7.85741 11.1431C8.47898 11.7646 9.2709 12.1879 10.133 12.3594C10.9952 12.5309 11.8888 12.4429 12.7009 12.1065C13.513 11.7701 14.2072 11.2004 14.6955 10.4696C15.1839 9.73867 15.4446 8.87938 15.4446 8.00035C15.4431 6.82205 14.9744 5.6924 14.1412 4.85921C13.3081 4.02603 12.1784 3.55732 11.0001 3.55591ZM11.0001 10.667C10.4727 10.667 9.95712 10.5106 9.51859 10.2176C9.08006 9.92459 8.73827 9.50811 8.53643 9.02084C8.3346 8.53357 8.28179 7.9974 8.38468 7.48011C8.48758 6.96283 8.74155 6.48767 9.11449 6.11473C9.48743 5.74179 9.96259 5.48782 10.4799 5.38493C10.9972 5.28203 11.5333 5.33484 12.0206 5.53667C12.5079 5.73851 12.9243 6.0803 13.2174 6.51883C13.5104 6.95736 13.6668 7.47294 13.6668 8.00035C13.6668 8.7076 13.3858 9.38587 12.8857 9.88597C12.3856 10.3861 11.7074 10.667 11.0001 10.667Z" fill="#141D24"/>
</g>
</svg>
