<svg width="24" height="24" viewBox="0 0 24 24" fill="none" xmlns="http://www.w3.org/2000/svg">
<g id="Frame">
<g id="Group">
<path id="Vector" d="M12.0002 2C7.34751 2 3.5791 2.52633 3.5791 6.21051V16.7368C3.5791 17.6684 3.98963 18.4947 4.63172 19.0737V20.9474C4.63172 21.5263 5.1054 22 5.68433 22H6.737C7.32121 22 7.78962 21.5263 7.78962 20.9474V19.8948H16.2107V20.9474C16.2107 21.5263 16.6791 22 17.2633 22H18.3159C18.8949 22 19.3685 21.5263 19.3685 20.9474V19.0737C20.0106 18.4948 20.4212 17.6684 20.4212 16.7369V6.21051C20.4212 2.52633 16.6528 2 12.0002 2ZM7.26333 17.7895C6.38963 17.7895 5.68438 17.0842 5.68438 16.2105C5.68438 15.3368 6.38963 14.6316 7.26333 14.6316C8.13703 14.6316 8.84228 15.3368 8.84228 16.2105C8.84228 17.0842 8.13698 17.7895 7.26333 17.7895ZM16.737 17.7895C15.8633 17.7895 15.1581 17.0842 15.1581 16.2105C15.1581 15.3368 15.8633 14.6316 16.737 14.6316C17.6107 14.6316 18.316 15.3368 18.316 16.2105C18.316 17.0842 17.6107 17.7895 16.737 17.7895ZM18.316 11.4737H5.68438V6.21051H18.316V11.4737Z" fill="white"/>
</g>
</g>
</svg>
