<svg width="156" height="31" viewBox="0 0 156 31" fill="none" xmlns="http://www.w3.org/2000/svg">
<g id="When Angela in Johannesburg knows best.">
<path id="Vector" d="M154.564 27.5261C154.307 27.5261 154.086 27.4357 153.902 27.2548C153.719 27.0739 153.628 26.8534 153.631 26.5933C153.628 26.3389 153.719 26.1212 153.902 25.9403C154.086 25.7594 154.307 25.6689 154.564 25.6689C154.813 25.6689 155.029 25.7594 155.212 25.9403C155.399 26.1212 155.494 26.3389 155.497 26.5933C155.494 26.7657 155.449 26.9226 155.361 27.064C155.276 27.2053 155.163 27.3184 155.022 27.4032C154.883 27.4851 154.731 27.5261 154.564 27.5261Z" fill="#141D24"/>
<path id="Vector_2" d="M152.334 20.9198V22.107H148.59V20.9198H152.334ZM149.514 19.3594H151.049V25.4737C151.049 25.68 151.08 25.8383 151.142 25.9486C151.207 26.056 151.292 26.1295 151.397 26.1691C151.501 26.2087 151.617 26.2284 151.745 26.2284C151.841 26.2284 151.928 26.2214 152.007 26.2072C152.089 26.1931 152.152 26.1804 152.194 26.1691L152.453 27.369C152.371 27.3973 152.253 27.4284 152.101 27.4623C151.951 27.4962 151.767 27.516 151.549 27.5217C151.165 27.533 150.819 27.475 150.511 27.3478C150.203 27.2178 149.958 27.0171 149.777 26.7457C149.599 26.4744 149.511 26.1352 149.514 25.7281V19.3594Z" fill="#141D24"/>
<path id="Vector_3" d="M147.677 22.6413L146.278 22.7939C146.238 22.6526 146.169 22.5197 146.07 22.3953C145.974 22.271 145.844 22.1706 145.68 22.0943C145.516 22.018 145.315 21.9798 145.078 21.9798C144.758 21.9798 144.49 22.0491 144.272 22.1876C144.057 22.3261 143.951 22.5056 143.954 22.7261C143.951 22.9155 144.021 23.0695 144.162 23.1883C144.306 23.307 144.544 23.4045 144.874 23.4808L145.985 23.7183C146.602 23.8511 147.059 24.0617 147.359 24.3501C147.662 24.6384 147.814 25.0158 147.817 25.4822C147.814 25.8921 147.694 26.2539 147.457 26.5677C147.222 26.8786 146.895 27.1217 146.477 27.297C146.059 27.4722 145.578 27.5599 145.035 27.5599C144.238 27.5599 143.597 27.3931 143.11 27.0595C142.624 26.7231 142.334 26.2553 142.241 25.656L143.738 25.5119C143.806 25.8058 143.95 26.0277 144.17 26.1776C144.391 26.3274 144.678 26.4023 145.031 26.4023C145.396 26.4023 145.688 26.3274 145.909 26.1776C146.132 26.0277 146.244 25.8426 146.244 25.6221C146.244 25.4355 146.172 25.2815 146.028 25.1599C145.886 25.0384 145.666 24.9451 145.366 24.8801L144.255 24.6469C143.631 24.5168 143.168 24.2978 142.869 23.9896C142.569 23.6787 142.421 23.2858 142.424 22.8109C142.421 22.4095 142.53 22.0618 142.75 21.7678C142.973 21.471 143.283 21.242 143.679 21.0809C144.077 20.9169 144.537 20.835 145.057 20.835C145.82 20.835 146.421 20.9975 146.859 21.3226C147.3 21.6477 147.573 22.0872 147.677 22.6413Z" fill="#141D24"/>
<path id="Vector_4" d="M138.334 27.5599C137.681 27.5599 137.117 27.4242 136.642 27.1528C136.17 26.8786 135.807 26.4913 135.553 25.991C135.298 25.4878 135.171 24.8956 135.171 24.2144C135.171 23.5444 135.298 22.9565 135.553 22.4505C135.81 21.9416 136.169 21.5459 136.63 21.2632C137.09 20.9777 137.632 20.835 138.253 20.835C138.655 20.835 139.034 20.9 139.39 21.03C139.749 21.1572 140.065 21.3551 140.34 21.6236C140.617 21.8922 140.834 22.2342 140.993 22.6497C141.151 23.0625 141.23 23.5543 141.23 24.1253V24.596H135.892V23.5614H139.759C139.756 23.2674 139.692 23.0059 139.568 22.777C139.444 22.5452 139.27 22.3628 139.046 22.23C138.826 22.0971 138.569 22.0307 138.275 22.0307C137.961 22.0307 137.685 22.107 137.448 22.2597C137.21 22.4095 137.025 22.6073 136.892 22.8533C136.762 23.0964 136.696 23.3635 136.693 23.6547V24.5578C136.693 24.9366 136.762 25.2617 136.901 25.5331C137.039 25.8016 137.233 26.008 137.482 26.1521C137.731 26.2935 138.022 26.3641 138.355 26.3641C138.579 26.3641 138.781 26.333 138.962 26.2708C139.143 26.2058 139.299 26.1111 139.432 25.9868C139.565 25.8624 139.665 25.7083 139.733 25.5246L141.166 25.6857C141.076 26.0645 140.904 26.3952 140.649 26.6779C140.398 26.9578 140.075 27.1754 139.682 27.3309C139.29 27.4835 138.84 27.5599 138.334 27.5599Z" fill="#141D24"/>
<path id="Vector_5" d="M127.998 27.4324V18.7485H129.533V21.9965H129.597C129.676 21.8382 129.787 21.67 129.932 21.4919C130.076 21.311 130.271 21.1569 130.517 21.0297C130.763 20.8997 131.076 20.8347 131.458 20.8347C131.961 20.8347 132.415 20.9633 132.819 21.2206C133.226 21.475 133.548 21.8523 133.786 22.3527C134.026 22.8502 134.146 23.4608 134.146 24.1844C134.146 24.8996 134.029 25.5074 133.794 26.0077C133.56 26.508 133.24 26.8896 132.836 27.1525C132.432 27.4154 131.974 27.5469 131.462 27.5469C131.089 27.5469 130.78 27.4847 130.534 27.3603C130.288 27.2359 130.09 27.0861 129.94 26.9108C129.793 26.7328 129.679 26.5646 129.597 26.4063H129.508V27.4324H127.998ZM129.503 24.1759C129.503 24.5971 129.563 24.966 129.681 25.2826C129.803 25.5992 129.977 25.8466 130.203 26.0247C130.432 26.1999 130.709 26.2875 131.034 26.2875C131.373 26.2875 131.657 26.1971 131.886 26.0162C132.115 25.8324 132.288 25.5823 132.404 25.2657C132.522 24.9462 132.582 24.583 132.582 24.1759C132.582 23.7717 132.524 23.4127 132.408 23.0989C132.292 22.7852 132.119 22.5392 131.891 22.3612C131.662 22.1831 131.376 22.094 131.034 22.094C130.706 22.094 130.428 22.1802 130.199 22.3527C129.97 22.5251 129.796 22.7668 129.677 23.0777C129.561 23.3887 129.503 23.7548 129.503 24.1759Z" fill="#141D24"/>
<path id="Vector_6" d="M123.563 22.6413L122.164 22.7939C122.124 22.6526 122.055 22.5197 121.956 22.3953C121.86 22.271 121.73 22.1706 121.566 22.0943C121.402 22.018 121.201 21.9798 120.964 21.9798C120.644 21.9798 120.376 22.0491 120.158 22.1876C119.943 22.3261 119.837 22.5056 119.84 22.7261C119.837 22.9155 119.906 23.0695 120.048 23.1883C120.192 23.307 120.429 23.4045 120.76 23.4808L121.871 23.7183C122.487 23.8511 122.945 24.0617 123.245 24.3501C123.547 24.6384 123.7 25.0158 123.703 25.4822C123.7 25.8921 123.58 26.2539 123.342 26.5677C123.108 26.8786 122.781 27.1217 122.363 27.297C121.945 27.4722 121.464 27.5599 120.921 27.5599C120.124 27.5599 119.482 27.3931 118.996 27.0595C118.51 26.7231 118.22 26.2553 118.127 25.656L119.624 25.5119C119.692 25.8058 119.836 26.0277 120.056 26.1776C120.277 26.3274 120.564 26.4023 120.917 26.4023C121.282 26.4023 121.574 26.3274 121.795 26.1776C122.018 26.0277 122.13 25.8426 122.13 25.6221C122.13 25.4355 122.058 25.2815 121.913 25.1599C121.772 25.0384 121.552 24.9451 121.252 24.8801L120.141 24.6469C119.516 24.5168 119.054 24.2978 118.754 23.9896C118.455 23.6787 118.306 23.2858 118.309 22.8109C118.306 22.4095 118.415 22.0618 118.636 21.7678C118.859 21.471 119.169 21.242 119.564 21.0809C119.963 20.9169 120.422 20.835 120.942 20.835C121.706 20.835 122.306 20.9975 122.744 21.3226C123.185 21.6477 123.458 22.0872 123.563 22.6413Z" fill="#141D24"/>
<path id="Vector_7" d="M109.766 27.4323L107.926 20.9194H109.49L110.635 25.4988H110.695L111.865 20.9194H113.413L114.583 25.4734H114.646L115.774 20.9194H117.343L115.499 27.4323H113.9L112.679 23.031H112.59L111.369 27.4323H109.766Z" fill="#141D24"/>
<path id="Vector_8" d="M104.185 27.5599C103.549 27.5599 102.998 27.4199 102.532 27.1401C102.065 26.8602 101.703 26.4687 101.446 25.9656C101.192 25.4624 101.064 24.8744 101.064 24.2017C101.064 23.5289 101.192 22.9395 101.446 22.4335C101.703 21.9275 102.065 21.5346 102.532 21.2547C102.998 20.9749 103.549 20.835 104.185 20.835C104.821 20.835 105.372 20.9749 105.839 21.2547C106.305 21.5346 106.666 21.9275 106.92 22.4335C107.177 22.9395 107.306 23.5289 107.306 24.2017C107.306 24.8744 107.177 25.4624 106.92 25.9656C106.666 26.4687 106.305 26.8602 105.839 27.1401C105.372 27.4199 104.821 27.5599 104.185 27.5599ZM104.194 26.3302C104.539 26.3302 104.827 26.2355 105.059 26.0461C105.29 25.8539 105.463 25.5967 105.576 25.2744C105.692 24.9522 105.75 24.5932 105.75 24.1974C105.75 23.7988 105.692 23.4384 105.576 23.1162C105.463 22.7911 105.29 22.5324 105.059 22.3402C104.827 22.148 104.539 22.0519 104.194 22.0519C103.84 22.0519 103.546 22.148 103.312 22.3402C103.08 22.5324 102.906 22.7911 102.79 23.1162C102.677 23.4384 102.621 23.7988 102.621 24.1974C102.621 24.5932 102.677 24.9522 102.79 25.2744C102.906 25.5967 103.08 25.8539 103.312 26.0461C103.546 26.2355 103.84 26.3302 104.194 26.3302Z" fill="#141D24"/>
<path id="Vector_9" d="M95.6033 23.6165V27.4327H94.0684V20.9198H95.5355V22.0264H95.6118C95.7616 21.6618 96.0005 21.372 96.3284 21.1572C96.6591 20.9424 97.0676 20.835 97.5538 20.835C98.0032 20.835 98.3947 20.9311 98.7283 21.1233C99.0647 21.3155 99.3247 21.5939 99.5085 21.9586C99.6951 22.3233 99.7869 22.7656 99.7841 23.2858V27.4327H98.2492V23.5232C98.2492 23.0879 98.1361 22.7473 97.9099 22.5013C97.6866 22.2554 97.3771 22.1325 96.9813 22.1325C96.7128 22.1325 96.4739 22.1918 96.2648 22.3105C96.0584 22.4264 95.8959 22.5946 95.7771 22.8151C95.6612 23.0356 95.6033 23.3027 95.6033 23.6165Z" fill="#141D24"/>
<path id="Vector_10" d="M88.6688 25.3886L88.6645 23.5357H88.9105L91.251 20.9195H93.0446L90.1656 24.1251H89.8476L88.6688 25.3886ZM87.2695 27.4324V18.7485H88.8045V27.4324H87.2695ZM91.357 27.4324L89.237 24.4685L90.2716 23.3873L93.193 27.4324H91.357Z" fill="#141D24"/>
<path id="Vector_11" d="M79.6787 30.0107C79.1274 30.0107 78.654 29.9358 78.2582 29.7859C77.8625 29.6389 77.5444 29.4411 77.3042 29.1923C77.0639 28.9436 76.8971 28.668 76.8038 28.3655L78.1861 28.0305C78.2483 28.1577 78.3388 28.2835 78.4575 28.4079C78.5762 28.5351 78.7359 28.6397 78.9366 28.7217C79.1402 28.8065 79.396 28.8489 79.7041 28.8489C80.1394 28.8489 80.4998 28.7429 80.7853 28.5309C81.0709 28.3217 81.2136 27.9768 81.2136 27.4963V26.2624H81.1373C81.0581 26.4207 80.9422 26.5832 80.7896 26.75C80.6398 26.9168 80.4405 27.0567 80.1917 27.1698C79.9458 27.2828 79.6363 27.3394 79.2631 27.3394C78.7628 27.3394 78.3091 27.2221 77.902 26.9874C77.4978 26.75 77.1756 26.3966 76.9353 25.9274C76.6978 25.4553 76.5791 24.8645 76.5791 24.155C76.5791 23.4398 76.6978 22.8363 76.9353 22.3445C77.1756 21.8498 77.4992 21.4752 77.9063 21.2208C78.3133 20.9636 78.767 20.835 79.2674 20.835C79.649 20.835 79.9628 20.9 80.2087 21.03C80.4574 21.1572 80.6553 21.3113 80.8023 21.4922C80.9493 21.6703 81.061 21.8385 81.1373 21.9968H81.2221V20.9198H82.7358V27.5387C82.7358 28.0955 82.603 28.5563 82.3372 28.921C82.0715 29.2856 81.7083 29.5584 81.2475 29.7393C80.7868 29.9202 80.2638 30.0107 79.6787 30.0107ZM79.6914 26.1352C80.0165 26.1352 80.2935 26.056 80.5225 25.8977C80.7514 25.7394 80.9253 25.5119 81.044 25.215C81.1627 24.9182 81.2221 24.5621 81.2221 24.1465C81.2221 23.7366 81.1627 23.3776 81.044 23.0695C80.9281 22.7614 80.7557 22.5225 80.5267 22.3529C80.3006 22.1805 80.0221 22.0943 79.6914 22.0943C79.3493 22.0943 79.0638 22.1833 78.8349 22.3614C78.6059 22.5395 78.4335 22.784 78.3176 23.095C78.2017 23.4031 78.1437 23.7536 78.1437 24.1465C78.1437 24.5451 78.2017 24.8942 78.3176 25.1938C78.4363 25.4907 78.6101 25.7225 78.8391 25.8892C79.0709 26.0532 79.355 26.1352 79.6914 26.1352Z" fill="#141D24"/>
<path id="Vector_12" d="M72.3799 27.4323V20.9195H73.8682V22.0049H73.936C74.0547 21.629 74.2583 21.3392 74.5466 21.1357C74.8378 20.9293 75.1699 20.8262 75.543 20.8262C75.6279 20.8262 75.7225 20.8304 75.8271 20.8389C75.9346 20.8445 76.0236 20.8544 76.0943 20.8686V22.2805C76.0292 22.2579 75.9261 22.2381 75.7847 22.2212C75.6462 22.2014 75.512 22.1915 75.3819 22.1915C75.1021 22.1915 74.8505 22.2523 74.6272 22.3738C74.4067 22.4926 74.2328 22.6579 74.1056 22.8699C73.9784 23.0819 73.9148 23.3265 73.9148 23.6035V27.4323H72.3799Z" fill="#141D24"/>
<path id="Vector_13" d="M69.2664 24.6932V20.9194H70.8013V27.4323H69.313V26.2748H69.2452C69.0982 26.6394 68.8565 26.9376 68.5201 27.1694C68.1865 27.4012 67.7752 27.5171 67.2862 27.5171C66.8594 27.5171 66.482 27.4224 66.1541 27.233C65.829 27.0408 65.5746 26.7624 65.3908 26.3977C65.2071 26.0302 65.1152 25.5864 65.1152 25.0663V20.9194H66.6502V24.8289C66.6502 25.2416 66.7632 25.5695 66.9894 25.8126C67.2155 26.0557 67.5123 26.1772 67.8798 26.1772C68.106 26.1772 68.325 26.1221 68.537 26.0119C68.7491 25.9016 68.9229 25.7377 69.0586 25.52C69.1971 25.2995 69.2664 25.0239 69.2664 24.6932Z" fill="#141D24"/>
<path id="Vector_14" d="M57.6621 27.4324V18.7485H59.197V21.9965H59.2606C59.3398 21.8382 59.4515 21.67 59.5956 21.4919C59.7398 21.311 59.9348 21.1569 60.1808 21.0297C60.4267 20.8997 60.7405 20.8347 61.1221 20.8347C61.6252 20.8347 62.0789 20.9633 62.4832 21.2206C62.8902 21.475 63.2125 21.8523 63.4499 22.3527C63.6902 22.8502 63.8103 23.4608 63.8103 24.1844C63.8103 24.8996 63.693 25.5074 63.4584 26.0077C63.2238 26.508 62.9044 26.8896 62.5001 27.1525C62.0959 27.4154 61.638 27.5469 61.1263 27.5469C60.7532 27.5469 60.4437 27.4847 60.1977 27.3603C59.9518 27.2359 59.7539 27.0861 59.6041 26.9108C59.4571 26.7328 59.3426 26.5646 59.2606 26.4063H59.1716V27.4324H57.6621ZM59.1674 24.1759C59.1674 24.5971 59.2267 24.966 59.3455 25.2826C59.467 25.5992 59.6409 25.8466 59.867 26.0247C60.096 26.1999 60.373 26.2875 60.6981 26.2875C61.0373 26.2875 61.3214 26.1971 61.5503 26.0162C61.7793 25.8324 61.9517 25.5823 62.0676 25.2657C62.1864 24.9462 62.2457 24.583 62.2457 24.1759C62.2457 23.7717 62.1878 23.4127 62.0719 23.0989C61.956 22.7852 61.7835 22.5392 61.5546 22.3612C61.3256 22.1831 61.0401 22.094 60.6981 22.094C60.3702 22.094 60.0917 22.1802 59.8628 22.3527C59.6338 22.5251 59.4599 22.7668 59.3412 23.0777C59.2253 23.3887 59.1674 23.7548 59.1674 24.1759Z" fill="#141D24"/>
<path id="Vector_15" d="M56.1888 22.6413L54.7896 22.7939C54.75 22.6526 54.6807 22.5197 54.5818 22.3953C54.4857 22.271 54.3557 22.1706 54.1917 22.0943C54.0277 22.018 53.827 21.9798 53.5896 21.9798C53.2702 21.9798 53.0016 22.0491 52.784 22.1876C52.5691 22.3261 52.4631 22.5056 52.466 22.7261C52.4631 22.9155 52.5324 23.0695 52.6737 23.1883C52.8179 23.307 53.0553 23.4045 53.3861 23.4808L54.497 23.7183C55.1132 23.8511 55.5712 24.0617 55.8708 24.3501C56.1733 24.6384 56.3259 25.0158 56.3287 25.4822C56.3259 25.8921 56.2058 26.2539 55.9683 26.5677C55.7337 26.8786 55.4072 27.1217 54.9888 27.297C54.5705 27.4722 54.0899 27.5599 53.5472 27.5599C52.75 27.5599 52.1084 27.3931 51.6222 27.0595C51.136 26.7231 50.8462 26.2553 50.7529 25.656L52.2497 25.5119C52.3176 25.8058 52.4617 26.0277 52.6822 26.1776C52.9027 26.3274 53.1896 26.4023 53.543 26.4023C53.9076 26.4023 54.2002 26.3274 54.4207 26.1776C54.644 26.0277 54.7556 25.8426 54.7556 25.6221C54.7556 25.4355 54.6836 25.2815 54.5394 25.1599C54.3981 25.0384 54.1776 24.9451 53.8779 24.8801L52.767 24.6469C52.1423 24.5168 51.6801 24.2978 51.3805 23.9896C51.0808 23.6787 50.9324 23.2858 50.9353 22.8109C50.9324 22.4095 51.0413 22.0618 51.2617 21.7678C51.4851 21.471 51.7946 21.242 52.1903 21.0809C52.5889 20.9169 53.0483 20.835 53.5684 20.835C54.3316 20.835 54.9323 20.9975 55.3705 21.3226C55.8114 21.6477 56.0842 22.0872 56.1888 22.6413Z" fill="#141D24"/>
<path id="Vector_16" d="M46.8458 27.5599C46.1928 27.5599 45.6288 27.4242 45.154 27.1528C44.6819 26.8786 44.3186 26.4913 44.0642 25.991C43.8098 25.4878 43.6826 24.8956 43.6826 24.2144C43.6826 23.5444 43.8098 22.9565 44.0642 22.4505C44.3215 21.9416 44.6805 21.5459 45.1412 21.2632C45.602 20.9777 46.1433 20.835 46.7652 20.835C47.1666 20.835 47.5454 20.9 47.9016 21.03C48.2606 21.1572 48.5772 21.3551 48.8514 21.6236C49.1284 21.8922 49.3461 22.2342 49.5044 22.6497C49.6627 23.0625 49.7418 23.5543 49.7418 24.1253V24.596H44.4034V23.5614H48.2705C48.2676 23.2674 48.204 23.0059 48.0797 22.777C47.9553 22.5452 47.7814 22.3628 47.5581 22.23C47.3376 22.0971 47.0804 22.0307 46.7864 22.0307C46.4726 22.0307 46.197 22.107 45.9596 22.2597C45.7221 22.4095 45.537 22.6073 45.4041 22.8533C45.2741 23.0964 45.2077 23.3635 45.2048 23.6547V24.5578C45.2048 24.9366 45.2741 25.2617 45.4126 25.5331C45.5511 25.8016 45.7447 26.008 45.9935 26.1521C46.2423 26.2935 46.5334 26.3641 46.867 26.3641C47.0903 26.3641 47.2924 26.333 47.4733 26.2708C47.6542 26.2058 47.8111 26.1111 47.944 25.9868C48.0768 25.8624 48.1772 25.7083 48.245 25.5246L49.6782 25.6857C49.5878 26.0645 49.4153 26.3952 49.1609 26.6779C48.9093 26.9578 48.5871 27.1754 48.1941 27.3309C47.8012 27.4835 47.3518 27.5599 46.8458 27.5599Z" fill="#141D24"/>
<path id="Vector_17" d="M38.2215 23.6165V27.4327H36.6865V20.9198H38.1536V22.0264H38.2299C38.3798 21.6618 38.6186 21.372 38.9465 21.1572C39.2773 20.9424 39.6857 20.835 40.1719 20.835C40.6214 20.835 41.0129 20.9311 41.3465 21.1233C41.6828 21.3155 41.9429 21.5939 42.1267 21.9586C42.3132 22.3233 42.4051 22.7656 42.4023 23.2858V27.4327H40.8673V23.5232C40.8673 23.0879 40.7543 22.7473 40.5281 22.5013C40.3048 22.2554 39.9953 22.1325 39.5995 22.1325C39.331 22.1325 39.0921 22.1918 38.8829 22.3105C38.6766 22.4264 38.514 22.5946 38.3953 22.8151C38.2794 23.0356 38.2215 23.3027 38.2215 23.6165Z" fill="#141D24"/>
<path id="Vector_18" d="M30.9461 23.6165V27.4327H29.4111V20.9198H30.8782V22.0264H30.9546C31.1044 21.6618 31.3432 21.372 31.6711 21.1572C32.0019 20.9424 32.4103 20.835 32.8965 20.835C33.346 20.835 33.7375 20.9311 34.0711 21.1233C34.4075 21.3155 34.6675 21.5939 34.8513 21.9586C35.0378 22.3233 35.1297 22.7656 35.1269 23.2858V27.4327H33.5919V23.5232C33.5919 23.0879 33.4789 22.7473 33.2527 22.5013C33.0294 22.2554 32.7199 22.1325 32.3241 22.1325C32.0556 22.1325 31.8167 22.1918 31.6075 22.3105C31.4012 22.4264 31.2386 22.5946 31.1199 22.8151C31.004 23.0356 30.9461 23.3027 30.9461 23.6165Z" fill="#141D24"/>
<path id="Vector_19" d="M24.4285 27.5641C24.0158 27.5641 23.644 27.4906 23.3133 27.3436C22.9854 27.1938 22.7253 26.9733 22.5331 26.6821C22.3437 26.391 22.249 26.032 22.249 25.6051C22.249 25.2377 22.3169 24.9338 22.4526 24.6935C22.5882 24.4532 22.7734 24.261 23.008 24.1168C23.2426 23.9727 23.5069 23.8638 23.8009 23.7904C24.0977 23.714 24.4044 23.6589 24.721 23.625C25.1027 23.5854 25.4122 23.5501 25.6496 23.519C25.8871 23.4851 26.0595 23.4342 26.1669 23.3663C26.2772 23.2957 26.3323 23.1868 26.3323 23.0398V23.0144C26.3323 22.695 26.2376 22.4476 26.0482 22.2724C25.8588 22.0971 25.586 22.0095 25.2299 22.0095C24.8539 22.0095 24.5557 22.0915 24.3352 22.2554C24.1175 22.4194 23.9705 22.613 23.8942 22.8363L22.461 22.6328C22.5741 22.237 22.7607 21.9063 23.0207 21.6406C23.2808 21.372 23.5988 21.1713 23.9748 21.0385C24.3507 20.9028 24.7663 20.835 25.2214 20.835C25.5352 20.835 25.8475 20.8717 26.1585 20.9452C26.4694 21.0187 26.7535 21.1403 27.0107 21.3099C27.268 21.4766 27.4743 21.7042 27.6298 21.9925C27.7881 22.2809 27.8672 22.6413 27.8672 23.0738V27.4327H26.3917V26.538H26.3408C26.2475 26.7189 26.1161 26.8885 25.9464 27.0468C25.7797 27.2023 25.5691 27.3281 25.3147 27.4242C25.0631 27.5175 24.7677 27.5641 24.4285 27.5641ZM24.827 26.4362C25.1352 26.4362 25.4023 26.3754 25.6284 26.2539C25.8546 26.1295 26.0284 25.9656 26.15 25.762C26.2744 25.5585 26.3365 25.3366 26.3365 25.0963V24.3289C26.2885 24.3684 26.2065 24.4052 26.0906 24.4391C25.9775 24.473 25.8503 24.5027 25.709 24.5281C25.5677 24.5536 25.4277 24.5762 25.2892 24.596C25.1507 24.6158 25.0306 24.6327 24.9288 24.6469C24.6998 24.678 24.4949 24.7288 24.314 24.7995C24.1331 24.8702 23.9903 24.9691 23.8857 25.0963C23.7811 25.2207 23.7288 25.3818 23.7288 25.5797C23.7288 25.8624 23.832 26.0758 24.0384 26.22C24.2447 26.3641 24.5076 26.4362 24.827 26.4362Z" fill="#141D24"/>
<path id="Vector_20" d="M16.7664 23.6162V27.4324H15.2314V18.7485H16.7325V22.0262H16.8088C16.9614 21.6587 17.1975 21.369 17.5169 21.1569C17.8391 20.9421 18.249 20.8347 18.7465 20.8347C19.1988 20.8347 19.5932 20.9294 19.9295 21.1188C20.2659 21.3082 20.526 21.5852 20.7097 21.9499C20.8963 22.3145 20.9896 22.7597 20.9896 23.2855V27.4324H19.4546V23.523C19.4546 23.0848 19.3416 22.7442 19.1154 22.5011C18.8921 22.2551 18.5783 22.1322 18.1741 22.1322C17.9027 22.1322 17.6596 22.1915 17.4448 22.3103C17.2328 22.4262 17.066 22.5944 16.9445 22.8149C16.8257 23.0353 16.7664 23.3025 16.7664 23.6162Z" fill="#141D24"/>
<path id="Vector_21" d="M10.8083 27.5599C10.1722 27.5599 9.62101 27.4199 9.1546 27.1401C8.68818 26.8602 8.32635 26.4687 8.06911 25.9656C7.81471 25.4624 7.6875 24.8744 7.6875 24.2017C7.6875 23.5289 7.81471 22.9395 8.06911 22.4335C8.32635 21.9275 8.68818 21.5346 9.1546 21.2547C9.62101 20.9749 10.1722 20.835 10.8083 20.835C11.4443 20.835 11.9955 20.9749 12.4619 21.2547C12.9283 21.5346 13.2888 21.9275 13.5432 22.4335C13.8004 22.9395 13.929 23.5289 13.929 24.2017C13.929 24.8744 13.8004 25.4624 13.5432 25.9656C13.2888 26.4687 12.9283 26.8602 12.4619 27.1401C11.9955 27.4199 11.4443 27.5599 10.8083 27.5599ZM10.8167 26.3302C11.1616 26.3302 11.4499 26.2355 11.6817 26.0461C11.9135 25.8539 12.086 25.5967 12.199 25.2744C12.3149 24.9522 12.3729 24.5932 12.3729 24.1974C12.3729 23.7988 12.3149 23.4384 12.199 23.1162C12.086 22.7911 11.9135 22.5324 11.6817 22.3402C11.4499 22.148 11.1616 22.0519 10.8167 22.0519C10.4634 22.0519 10.1694 22.148 9.93479 22.3402C9.70299 22.5324 9.52914 22.7911 9.41325 23.1162C9.30018 23.4384 9.24364 23.7988 9.24364 24.1974C9.24364 24.5932 9.30018 24.9522 9.41325 25.2744C9.52914 25.5967 9.70299 25.8539 9.93479 26.0461C10.1694 26.2355 10.4634 26.3302 10.8167 26.3302Z" fill="#141D24"/>
<path id="Vector_22" d="M4.76788 18.7485H6.32826V24.8544C6.32543 25.4141 6.20671 25.896 5.97209 26.3003C5.73746 26.7017 5.40956 27.0112 4.98837 27.2289C4.57 27.4437 4.08239 27.5511 3.52551 27.5511C3.01669 27.5511 2.55875 27.4607 2.1517 27.2797C1.74747 27.096 1.42663 26.8246 1.18918 26.4656C0.951732 26.1066 0.833008 25.66 0.833008 25.1257H2.39763C2.40045 25.3604 2.45134 25.5625 2.55027 25.7321C2.65204 25.9017 2.79196 26.0317 2.97005 26.1222C3.14814 26.2126 3.35308 26.2579 3.58487 26.2579C3.83646 26.2579 4.04988 26.2056 4.22514 26.101C4.4004 25.9936 4.53326 25.8353 4.62371 25.6261C4.717 25.4169 4.76505 25.1597 4.76788 24.8544V18.7485Z" fill="#141D24"/>
<path id="Vector_23" d="M85.9715 5.70586V9.52201H84.4365V3.00912H85.9036V4.1158H85.9799C86.1298 3.75115 86.3686 3.4614 86.6965 3.24657C87.0273 3.03173 87.4357 2.92432 87.9219 2.92432C88.3714 2.92432 88.7629 3.02043 89.0965 3.21265C89.4329 3.40487 89.6929 3.6833 89.8767 4.04796C90.0632 4.41261 90.1551 4.855 90.1523 5.37513V9.52201H88.6173V5.61258C88.6173 5.17726 88.5043 4.83663 88.2781 4.5907C88.0548 4.34477 87.7453 4.22181 87.3495 4.22181C87.081 4.22181 86.8421 4.28117 86.6329 4.39989C86.4266 4.51579 86.264 4.68398 86.1453 4.90447C86.0294 5.12496 85.9715 5.39209 85.9715 5.70586Z" fill="#141D24"/>
<path id="Vector_24" d="M81.3228 9.52209V3.0092H82.8578V9.52209H81.3228ZM82.0945 2.08484C81.8514 2.08484 81.6423 2.00428 81.467 1.84315C81.2917 1.6792 81.2041 1.48274 81.2041 1.25377C81.2041 1.02197 81.2917 0.825512 81.467 0.664386C81.6423 0.500433 81.8514 0.418457 82.0945 0.418457C82.3405 0.418457 82.5496 0.500433 82.7221 0.664386C82.8973 0.825512 82.985 1.02197 82.985 1.25377C82.985 1.48274 82.8973 1.6792 82.7221 1.84315C82.5496 2.00428 82.3405 2.08484 82.0945 2.08484Z" fill="#141D24"/>
<path id="Vector_25" d="M73.3787 9.65345C72.966 9.65345 72.5942 9.57996 72.2635 9.43297C71.9356 9.28315 71.6755 9.06266 71.4833 8.7715C71.2939 8.48034 71.1992 8.12134 71.1992 7.6945C71.1992 7.32702 71.2671 7.02314 71.4027 6.78286C71.5384 6.54259 71.7236 6.35037 71.9582 6.2062C72.1928 6.06204 72.4571 5.95321 72.7511 5.87971C73.0479 5.80339 73.3546 5.74826 73.6712 5.71434C74.0528 5.67477 74.3624 5.63943 74.5998 5.60834C74.8373 5.57442 75.0097 5.52354 75.1171 5.45569C75.2274 5.38502 75.2825 5.27619 75.2825 5.1292V5.10376C75.2825 4.78433 75.1878 4.53699 74.9984 4.36173C74.809 4.18647 74.5362 4.09884 74.1801 4.09884C73.8041 4.09884 73.5059 4.18082 73.2854 4.34477C73.0677 4.50872 72.9207 4.70236 72.8444 4.92567L71.4112 4.72215C71.5243 4.3264 71.7109 3.99566 71.9709 3.72995C72.231 3.4614 72.549 3.2607 72.925 3.12784C73.3009 2.99216 73.7165 2.92432 74.1716 2.92432C74.4853 2.92432 74.7977 2.96106 75.1087 3.03456C75.4196 3.10806 75.7037 3.22961 75.9609 3.39921C76.2182 3.56599 76.4245 3.79355 76.58 4.08188C76.7383 4.37021 76.8174 4.73063 76.8174 5.16312V9.52201H75.3419V8.62734H75.291C75.1977 8.80825 75.0662 8.97785 74.8966 9.13615C74.7299 9.29163 74.5193 9.41742 74.2649 9.51353C74.0133 9.60681 73.7179 9.65345 73.3787 9.65345ZM73.7772 8.52557C74.0854 8.52557 74.3525 8.4648 74.5786 8.34324C74.8048 8.21887 74.9786 8.05491 75.1002 7.85139C75.2245 7.64786 75.2867 7.42596 75.2867 7.18568V6.41821C75.2387 6.45779 75.1567 6.49453 75.0408 6.52845C74.9277 6.56238 74.8005 6.59206 74.6592 6.6175C74.5179 6.64294 74.3779 6.66555 74.2394 6.68534C74.1009 6.70513 73.9808 6.72209 73.879 6.73622C73.65 6.76732 73.4451 6.8182 73.2642 6.88887C73.0833 6.95954 72.9405 7.05848 72.8359 7.18568C72.7313 7.31006 72.679 7.47118 72.679 7.66906C72.679 7.95174 72.7822 8.16516 72.9886 8.30932C73.1949 8.45349 73.4578 8.52557 73.7772 8.52557Z" fill="#141D24"/>
<path id="Vector_26" d="M69.9265 0.838379V9.52223H68.3916V0.838379H69.9265Z" fill="#141D24"/>
<path id="Vector_27" d="M64.1973 9.64921C63.5444 9.64921 62.9804 9.51353 62.5055 9.24216C62.0334 8.96796 61.6702 8.58069 61.4158 8.08035C61.1614 7.57719 61.0342 6.98498 61.0342 6.30373C61.0342 5.63378 61.1614 5.04581 61.4158 4.53982C61.673 4.031 62.032 3.63525 62.4928 3.35257C62.9536 3.06707 63.4949 2.92432 64.1168 2.92432C64.5182 2.92432 64.897 2.98933 65.2531 3.11936C65.6121 3.24657 65.9287 3.44444 66.2029 3.71299C66.48 3.98153 66.6976 4.32357 66.8559 4.73911C67.0142 5.15182 67.0934 5.64367 67.0934 6.21468V6.68534H61.755V5.65074H65.622C65.6192 5.35676 65.5556 5.09528 65.4312 4.86631C65.3069 4.63452 65.133 4.45219 64.9097 4.31933C64.6892 4.18647 64.432 4.12004 64.138 4.12004C63.8242 4.12004 63.5486 4.19637 63.3111 4.34901C63.0737 4.49883 62.8885 4.6967 62.7557 4.94263C62.6257 5.18574 62.5592 5.45287 62.5564 5.74402V6.64718C62.5564 7.02597 62.6257 7.35105 62.7642 7.62242C62.9027 7.89096 63.0963 8.09731 63.3451 8.24148C63.5938 8.38282 63.885 8.45349 64.2185 8.45349C64.4419 8.45349 64.644 8.42239 64.8249 8.36021C65.0058 8.29519 65.1627 8.20049 65.2955 8.07611C65.4284 7.95174 65.5288 7.79768 65.5966 7.61394L67.0298 7.77506C66.9393 8.15385 66.7669 8.48458 66.5125 8.76726C66.2609 9.04711 65.9386 9.26477 65.5457 9.42025C65.1528 9.57289 64.7033 9.64921 64.1973 9.64921Z" fill="#141D24"/>
<path id="Vector_28" d="M56.6835 12.1C56.1323 12.1 55.6588 12.0251 55.2631 11.8753C54.8673 11.7283 54.5493 11.5304 54.3091 11.2817C54.0688 11.0329 53.902 10.7573 53.8087 10.4548L55.191 10.1199C55.2532 10.2471 55.3437 10.3729 55.4624 10.4972C55.5811 10.6245 55.7408 10.729 55.9415 10.811C56.145 10.8958 56.4009 10.9382 56.709 10.9382C57.1443 10.9382 57.5047 10.8322 57.7902 10.6202C58.0757 10.411 58.2185 10.0662 58.2185 9.58561V8.35172H58.1422C58.063 8.51002 57.9471 8.67256 57.7945 8.83934C57.6447 9.00612 57.4454 9.14605 57.1966 9.25912C56.9507 9.37219 56.6411 9.42873 56.268 9.42873C55.7677 9.42873 55.314 9.31142 54.9069 9.07679C54.5027 8.83934 54.1804 8.486 53.9402 8.01675C53.7027 7.54468 53.584 6.95388 53.584 6.24436C53.584 5.52919 53.7027 4.92567 53.9402 4.43381C54.1804 3.93913 54.5041 3.56458 54.9112 3.31017C55.3182 3.05293 55.7719 2.92432 56.2723 2.92432C56.6539 2.92432 56.9676 2.98933 57.2136 3.11936C57.4623 3.24657 57.6602 3.40063 57.8072 3.58154C57.9542 3.75963 58.0658 3.92782 58.1422 4.08612H58.227V3.00912H59.7407V9.62801C59.7407 10.1849 59.6078 10.6457 59.3421 11.0103C59.0764 11.375 58.7132 11.6477 58.2524 11.8287C57.7916 12.0096 57.2687 12.1 56.6835 12.1ZM56.6963 8.22452C57.0213 8.22452 57.2984 8.14537 57.5273 7.98707C57.7563 7.82877 57.9302 7.60122 58.0489 7.3044C58.1676 7.00759 58.227 6.65142 58.227 6.23588C58.227 5.826 58.1676 5.467 58.0489 5.15888C57.933 4.85076 57.7606 4.6119 57.5316 4.44229C57.3054 4.26986 57.027 4.18364 56.6963 4.18364C56.3542 4.18364 56.0687 4.27269 55.8398 4.45077C55.6108 4.62886 55.4384 4.87338 55.3225 5.18432C55.2066 5.49244 55.1486 5.84296 55.1486 6.23588C55.1486 6.63446 55.2066 6.98357 55.3225 7.2832C55.4412 7.58001 55.615 7.81181 55.844 7.97859C56.0758 8.14254 56.3599 8.22452 56.6963 8.22452Z" fill="#141D24"/>
<path id="Vector_29" d="M48.1101 5.70586V9.52201H46.5752V3.00912H48.0423V4.1158H48.1186C48.2684 3.75115 48.5073 3.4614 48.8352 3.24657C49.1659 3.03173 49.5744 2.92432 50.0606 2.92432C50.5101 2.92432 50.9016 3.02043 51.2351 3.21265C51.5715 3.40487 51.8316 3.6833 52.0153 4.04796C52.2019 4.41261 52.2938 4.855 52.2909 5.37513V9.52201H50.756V5.61258C50.756 5.17726 50.6429 4.83663 50.4168 4.5907C50.1935 4.34477 49.8839 4.22181 49.4882 4.22181C49.2196 4.22181 48.9808 4.28117 48.7716 4.39989C48.5652 4.51579 48.4027 4.68398 48.284 4.90447C48.1681 5.12496 48.1101 5.39209 48.1101 5.70586Z" fill="#141D24"/>
<path id="Vector_30" d="M39.1176 9.52223H37.4385L40.4956 0.838379H42.4376L45.499 9.52223H43.8199L41.5006 2.61925H41.4327L39.1176 9.52223ZM39.1727 6.11738H43.7521V7.38095H39.1727V6.11738Z" fill="#141D24"/>
<path id="Vector_31" d="M29.2312 5.70586V9.52201H27.6963V3.00912H29.1634V4.1158H29.2397C29.3895 3.75115 29.6284 3.4614 29.9563 3.24657C30.287 3.03173 30.6955 2.92432 31.1817 2.92432C31.6312 2.92432 32.0227 3.02043 32.3562 3.21265C32.6926 3.40487 32.9527 3.6833 33.1364 4.04796C33.323 4.41261 33.4149 4.855 33.412 5.37513V9.52201H31.8771V5.61258C31.8771 5.17726 31.764 4.83663 31.5379 4.5907C31.3146 4.34477 31.005 4.22181 30.6093 4.22181C30.3407 4.22181 30.1019 4.28117 29.8927 4.39989C29.6863 4.51579 29.5238 4.68398 29.4051 4.90447C29.2892 5.12496 29.2312 5.39209 29.2312 5.70586Z" fill="#141D24"/>
<path id="Vector_32" d="M23.502 9.64921C22.849 9.64921 22.2851 9.51353 21.8102 9.24216C21.3381 8.96796 20.9749 8.58069 20.7205 8.08035C20.4661 7.57719 20.3389 6.98498 20.3389 6.30373C20.3389 5.63378 20.4661 5.04581 20.7205 4.53982C20.9777 4.031 21.3367 3.63525 21.7975 3.35257C22.2582 3.06707 22.7996 2.92432 23.4215 2.92432C23.8229 2.92432 24.2017 2.98933 24.5578 3.11936C24.9168 3.24657 25.2334 3.44444 25.5076 3.71299C25.7847 3.98153 26.0023 4.32357 26.1606 4.73911C26.3189 5.15182 26.3981 5.64367 26.3981 6.21468V6.68534H21.0597V5.65074H24.9267C24.9239 5.35676 24.8603 5.09528 24.7359 4.86631C24.6115 4.63452 24.4377 4.45219 24.2144 4.31933C23.9939 4.18647 23.7367 4.12004 23.4427 4.12004C23.1289 4.12004 22.8533 4.19637 22.6158 4.34901C22.3784 4.49883 22.1932 4.6967 22.0604 4.94263C21.9303 5.18574 21.8639 5.45287 21.8611 5.74402V6.64718C21.8611 7.02597 21.9303 7.35105 22.0689 7.62242C22.2074 7.89096 22.401 8.09731 22.6498 8.24148C22.8985 8.38282 23.1897 8.45349 23.5232 8.45349C23.7465 8.45349 23.9487 8.42239 24.1296 8.36021C24.3105 8.29519 24.4674 8.20049 24.6002 8.07611C24.7331 7.95174 24.8334 7.79768 24.9013 7.61394L26.3345 7.77506C26.244 8.15385 26.0716 8.48458 25.8172 8.76726C25.5656 9.04711 25.2433 9.26477 24.8504 9.42025C24.4575 9.57289 24.008 9.64921 23.502 9.64921Z" fill="#141D24"/>
<path id="Vector_33" d="M14.8308 5.70609V9.52223H13.2959V0.838379H14.7969V4.11602H14.8732C15.0259 3.74854 15.2619 3.4588 15.5813 3.24679C15.9036 3.03196 16.3135 2.92454 16.811 2.92454C17.2633 2.92454 17.6576 3.01924 17.994 3.20863C18.3304 3.39802 18.5904 3.67505 18.7742 4.0397C18.9608 4.40436 19.054 4.84957 19.054 5.37535V9.52223H17.5191V5.6128C17.5191 5.17465 17.406 4.83403 17.1799 4.59092C16.9566 4.34499 16.6428 4.22203 16.2386 4.22203C15.9672 4.22203 15.7241 4.28139 15.5093 4.40012C15.2973 4.51601 15.1305 4.68421 15.0089 4.9047C14.8902 5.12518 14.8308 5.39231 14.8308 5.70609Z" fill="#141D24"/>
<path id="Vector_34" d="M3.16956 9.52223L0.71875 0.838379H2.41058L3.9752 7.21982H4.05576L5.72638 0.838379H7.26556L8.94043 7.22406H9.01675L10.5814 0.838379H12.2732L9.82238 9.52223H8.27048L6.53201 3.42912H6.46417L4.72146 9.52223H3.16956Z" fill="#141D24"/>
</g>
</svg>
