<svg width="158" height="46" viewBox="0 0 158 46" fill="none" xmlns="http://www.w3.org/2000/svg">
<g id="Why trust Gary in Florida to plan your trip to South Africa?">
<path id="Vector" d="M36.8512 42.5775V42.4674C36.854 41.9562 36.9021 41.5495 36.9954 41.2473C37.0915 40.9451 37.2272 40.7022 37.4024 40.5186C37.5777 40.3322 37.7911 40.1613 38.0427 40.006C38.2151 39.8987 38.3692 39.7815 38.5049 39.6544C38.6434 39.5245 38.7522 39.3804 38.8314 39.2223C38.9105 39.0613 38.9501 38.8819 38.9501 38.6842C38.9501 38.4611 38.8978 38.2677 38.7932 38.1038C38.6886 37.94 38.5473 37.8129 38.3692 37.7226C38.1939 37.6322 37.9975 37.587 37.7798 37.587C37.5791 37.587 37.3883 37.6308 37.2074 37.7183C37.0293 37.8031 36.8809 37.933 36.7622 38.1081C36.6463 38.2804 36.5812 38.4992 36.5671 38.7647H35.0576C35.0718 38.2281 35.2018 37.779 35.4477 37.4175C35.6965 37.056 36.0244 36.7849 36.4314 36.6041C36.8413 36.4234 37.2936 36.333 37.7883 36.333C38.3282 36.333 38.8031 36.4276 39.213 36.6169C39.6257 36.8061 39.9465 37.0758 40.1755 37.426C40.4073 37.7734 40.5232 38.1857 40.5232 38.6631C40.5232 38.985 40.4709 39.2731 40.3663 39.5273C40.2645 39.7815 40.119 40.0074 39.9296 40.2051C39.7402 40.4028 39.5154 40.5793 39.2554 40.7347C39.0264 40.8759 38.8384 41.0228 38.6914 41.1753C38.5473 41.3278 38.4399 41.5071 38.3692 41.7133C38.3013 41.9166 38.266 42.168 38.2632 42.4674V42.5775H36.8512ZM37.589 45.2211C37.3346 45.2211 37.1155 45.1307 36.9318 44.9499C36.748 44.7692 36.6562 44.5489 36.6562 44.2891C36.6562 44.0349 36.748 43.8174 36.9318 43.6366C37.1155 43.4559 37.3346 43.3655 37.589 43.3655C37.8406 43.3655 38.0582 43.4559 38.242 43.6366C38.4285 43.8174 38.5218 44.0349 38.5218 44.2891C38.5218 44.4613 38.478 44.6181 38.3904 44.7593C38.3056 44.9005 38.1925 45.0135 38.0512 45.0982C37.9127 45.1801 37.7586 45.2211 37.589 45.2211Z" fill="#141D24"/>
<path id="Vector_2" d="M30.4099 45.2584C29.9972 45.2584 29.6255 45.185 29.2947 45.0381C28.9668 44.8884 28.7068 44.6681 28.5146 44.3772C28.3252 44.0863 28.2305 43.7276 28.2305 43.3012C28.2305 42.934 28.2983 42.6304 28.434 42.3903C28.5697 42.1503 28.7548 41.9582 28.9895 41.8142C29.2241 41.6701 29.4884 41.5614 29.7824 41.488C30.0792 41.4117 30.3859 41.3566 30.7025 41.3227C31.0841 41.2832 31.3936 41.2479 31.6311 41.2168C31.8685 41.1829 32.041 41.1321 32.1484 41.0643C32.2586 40.9937 32.3137 40.885 32.3137 40.7381V40.7127C32.3137 40.3935 32.219 40.1464 32.0297 39.9713C31.8403 39.7962 31.5675 39.7087 31.2113 39.7087C30.8353 39.7087 30.5371 39.7906 30.3166 39.9544C30.099 40.1182 29.952 40.3116 29.8757 40.5348L28.4425 40.3314C28.5555 39.936 28.7421 39.6056 29.0022 39.3401C29.2622 39.0718 29.5803 38.8712 29.9562 38.7385C30.3322 38.6029 30.7477 38.5352 31.2028 38.5352C31.5166 38.5352 31.829 38.5719 32.1399 38.6453C32.4508 38.7187 32.7349 38.8402 32.9922 39.0096C33.2494 39.1763 33.4558 39.4036 33.6112 39.6917C33.7695 39.9798 33.8487 40.3399 33.8487 40.772V45.1271H32.3731V44.2332H32.3222C32.2289 44.4139 32.0975 44.5834 31.9279 44.7415C31.7611 44.8969 31.5505 45.0226 31.2961 45.1186C31.0445 45.2118 30.7491 45.2584 30.4099 45.2584ZM30.8085 44.1315C31.1166 44.1315 31.3837 44.0708 31.6099 43.9493C31.836 43.8251 32.0099 43.6613 32.1314 43.4579C32.2558 43.2546 32.318 43.0328 32.318 42.7928V42.026C32.2699 42.0655 32.188 42.1022 32.0721 42.1361C31.959 42.17 31.8318 42.1997 31.6904 42.2251C31.5491 42.2505 31.4092 42.2731 31.2707 42.2929C31.1322 42.3126 31.012 42.3296 30.9103 42.3437C30.6813 42.3748 30.4763 42.4256 30.2954 42.4962C30.1145 42.5668 29.9718 42.6657 29.8672 42.7928C29.7626 42.917 29.7103 43.078 29.7103 43.2757C29.7103 43.5582 29.8135 43.7714 30.0198 43.9154C30.2262 44.0595 30.4891 44.1315 30.8085 44.1315Z" fill="#141D24"/>
<path id="Vector_3" d="M24.4753 45.2542C23.8251 45.2542 23.2668 45.1115 22.8004 44.8263C22.3368 44.541 21.9792 44.147 21.7276 43.6443C21.4789 43.1388 21.3545 42.557 21.3545 41.8989C21.3545 41.238 21.4817 40.6548 21.7361 40.1492C21.9905 39.6409 22.3495 39.2455 22.8131 38.963C23.2795 38.6778 23.8307 38.5352 24.4668 38.5352C24.9954 38.5352 25.4632 38.6326 25.8703 38.8275C26.2801 39.0195 26.6066 39.2921 26.8497 39.6451C27.0928 39.9953 27.2314 40.4048 27.2653 40.8737H25.7982C25.7388 40.5602 25.5975 40.2989 25.3742 40.0899C25.1537 39.8781 24.8583 39.7722 24.488 39.7722C24.1742 39.7722 23.8986 39.8569 23.6611 40.0264C23.4237 40.193 23.2385 40.4331 23.1057 40.7466C22.9756 41.0601 22.9106 41.4357 22.9106 41.8735C22.9106 42.3169 22.9756 42.6982 23.1057 43.0173C23.2357 43.3336 23.418 43.5779 23.6527 43.7502C23.8901 43.9197 24.1685 44.0044 24.488 44.0044C24.7141 44.0044 24.9162 43.962 25.0943 43.8773C25.2752 43.7898 25.4265 43.6641 25.548 43.5003C25.6696 43.3365 25.753 43.1373 25.7982 42.9029H27.2653C27.2285 43.3633 27.0928 43.7714 26.8582 44.1273C26.6236 44.4803 26.3042 44.7571 25.8999 44.9576C25.4957 45.1553 25.0208 45.2542 24.4753 45.2542Z" fill="#141D24"/>
<path id="Vector_4" d="M18.5084 45.1176V38.6104H20.0433V45.1176H18.5084ZM19.2801 37.6869C19.037 37.6869 18.8278 37.6064 18.6525 37.4454C18.4773 37.2816 18.3896 37.0853 18.3896 36.8566C18.3896 36.625 18.4773 36.4287 18.6525 36.2677C18.8278 36.1039 19.037 36.022 19.2801 36.022C19.526 36.022 19.7352 36.1039 19.9076 36.2677C20.0829 36.4287 20.1705 36.625 20.1705 36.8566C20.1705 37.0853 20.0829 37.2816 19.9076 37.4454C19.7352 37.6064 19.526 37.6869 19.2801 37.6869Z" fill="#141D24"/>
<path id="Vector_5" d="M13.7891 45.116V38.6088H15.2774V39.6934H15.3452C15.4639 39.3177 15.6675 39.0282 15.9558 38.8249C16.2469 38.6187 16.5791 38.5156 16.9522 38.5156C17.037 38.5156 17.1317 38.5199 17.2363 38.5283C17.3437 38.534 17.4328 38.5439 17.5034 38.558V39.9687C17.4384 39.9461 17.3352 39.9264 17.1939 39.9094C17.0554 39.8896 16.9211 39.8798 16.7911 39.8798C16.5112 39.8798 16.2597 39.9405 16.0363 40.0619C15.8159 40.1805 15.642 40.3458 15.5148 40.5576C15.3876 40.7694 15.324 41.0137 15.324 41.2905V45.116H13.7891Z" fill="#141D24"/>
<path id="Vector_6" d="M12.5825 38.6197V39.8059H8.73242V38.6197H12.5825ZM9.69494 45.1269V38.0054C9.69494 37.5677 9.7854 37.2033 9.96631 36.9124C10.15 36.6215 10.396 36.404 10.7041 36.26C11.0122 36.116 11.3543 36.0439 11.7302 36.0439C11.9959 36.0439 12.232 36.0651 12.4383 36.1075C12.6447 36.1499 12.7973 36.188 12.8963 36.2219L12.591 37.4081C12.526 37.3883 12.444 37.3685 12.345 37.3488C12.2461 37.3262 12.1359 37.3149 12.0143 37.3149C11.7288 37.3149 11.5267 37.3841 11.408 37.5225C11.2921 37.658 11.2341 37.8529 11.2341 38.1071V45.1269H9.69494Z" fill="#141D24"/>
<path id="Vector_7" d="M1.91641 45.1162H0.237305L3.29446 36.4399H5.23645L8.29785 45.1162H6.61875L4.29938 38.2192H4.23154L1.91641 45.1162ZM1.97153 41.7143H6.5509V42.9768H1.97153V41.7143Z" fill="#141D24"/>
<path id="Vector_8" d="M123.266 23.4108V27.2236H121.731V18.5474H123.232V21.8221H123.309C123.461 21.455 123.697 21.1655 124.017 20.9537C124.339 20.739 124.749 20.6317 125.247 20.6317C125.699 20.6317 126.093 20.7263 126.43 20.9155C126.766 21.1048 127.026 21.3815 127.21 21.7459C127.396 22.1102 127.49 22.555 127.49 23.0804V27.2236H125.955V23.3176C125.955 22.8798 125.842 22.5395 125.615 22.2966C125.392 22.0509 125.078 21.928 124.674 21.928C124.403 21.928 124.16 21.9874 123.945 22.106C123.733 22.2218 123.566 22.3898 123.444 22.6101C123.326 22.8304 123.266 23.0973 123.266 23.4108Z" fill="#141D24"/>
<path id="Vector_9" d="M120.314 20.7206V21.9068H116.57V20.7206H120.314ZM117.495 19.1616H119.03V25.2706C119.03 25.4767 119.061 25.6349 119.123 25.7451C119.188 25.8524 119.273 25.9258 119.377 25.9653C119.482 26.0049 119.598 26.0247 119.725 26.0247C119.821 26.0247 119.909 26.0176 119.988 26.0035C120.07 25.9894 120.132 25.9766 120.174 25.9653L120.433 27.1643C120.351 27.1925 120.234 27.2236 120.081 27.2575C119.931 27.2914 119.748 27.3111 119.53 27.3168C119.146 27.3281 118.799 27.2702 118.491 27.1431C118.183 27.0132 117.938 26.8126 117.758 26.5415C117.579 26.2704 117.492 25.9315 117.495 25.5248V19.1616Z" fill="#141D24"/>
<path id="Vector_10" d="M113.962 24.497V20.7266H115.497V27.2337H114.008V26.0772H113.94C113.793 26.4415 113.552 26.7395 113.215 26.9711C112.882 27.2027 112.471 27.3185 111.982 27.3185C111.555 27.3185 111.177 27.2239 110.849 27.0346C110.524 26.8426 110.27 26.5644 110.086 26.2C109.902 25.8329 109.811 25.3895 109.811 24.8698V20.7266H111.345V24.6326C111.345 25.0449 111.459 25.3725 111.685 25.6154C111.911 25.8583 112.208 25.9798 112.575 25.9798C112.801 25.9798 113.02 25.9247 113.232 25.8145C113.444 25.7044 113.618 25.5406 113.754 25.3231C113.892 25.1028 113.962 24.8274 113.962 24.497Z" fill="#141D24"/>
<path id="Vector_11" d="M105.382 27.3479C104.746 27.3479 104.195 27.2081 103.729 26.9285C103.262 26.6489 102.901 26.2577 102.643 25.755C102.389 25.2523 102.262 24.6648 102.262 23.9926C102.262 23.3205 102.389 22.7316 102.643 22.226C102.901 21.7205 103.262 21.3279 103.729 21.0483C104.195 20.7687 104.746 20.6289 105.382 20.6289C106.018 20.6289 106.57 20.7687 107.036 21.0483C107.503 21.3279 107.863 21.7205 108.117 22.226C108.375 22.7316 108.503 23.3205 108.503 23.9926C108.503 24.6648 108.375 25.2523 108.117 25.755C107.863 26.2577 107.503 26.6489 107.036 26.9285C106.57 27.2081 106.018 27.3479 105.382 27.3479ZM105.391 26.1193C105.736 26.1193 106.024 26.0247 106.256 25.8355C106.488 25.6434 106.66 25.3864 106.773 25.0645C106.889 24.7425 106.947 24.3838 106.947 23.9884C106.947 23.5902 106.889 23.2301 106.773 22.9081C106.66 22.5833 106.488 22.3249 106.256 22.1328C106.024 21.9408 105.736 21.8448 105.391 21.8448C105.038 21.8448 104.744 21.9408 104.509 22.1328C104.277 22.3249 104.103 22.5833 103.987 22.9081C103.874 23.2301 103.818 23.5902 103.818 23.9884C103.818 24.3838 103.874 24.7425 103.987 25.0645C104.103 25.3864 104.277 25.6434 104.509 25.8355C104.744 26.0247 105.038 26.1193 105.391 26.1193Z" fill="#141D24"/>
<path id="Vector_12" d="M99.5721 20.9305C99.5326 20.5605 99.3658 20.2724 99.0718 20.0663C98.7806 19.8601 98.4019 19.757 97.9354 19.757C97.6075 19.757 97.3263 19.8064 97.0916 19.9053C96.857 20.0041 96.6775 20.1383 96.5531 20.3077C96.4288 20.4772 96.3652 20.6707 96.3623 20.8881C96.3623 21.0689 96.4033 21.2256 96.4853 21.3584C96.5701 21.4911 96.6846 21.6041 96.8288 21.6973C96.9729 21.7877 97.1326 21.8639 97.3079 21.9261C97.4831 21.9882 97.6598 22.0404 97.8379 22.0828L98.652 22.2862C98.9799 22.3624 99.2951 22.4655 99.5976 22.5954C99.9029 22.7253 100.176 22.8891 100.416 23.0868C100.659 23.2845 100.851 23.5232 100.993 23.8028C101.134 24.0824 101.205 24.41 101.205 24.7857C101.205 25.294 101.075 25.7417 100.815 26.1286C100.554 26.5127 100.178 26.8135 99.6866 27.031C99.1976 27.2456 98.6054 27.3529 97.91 27.3529C97.2344 27.3529 96.6478 27.2484 96.1503 27.0394C95.6556 26.8304 95.2684 26.5254 94.9885 26.1244C94.7115 25.7233 94.5617 25.2347 94.5391 24.6586H96.0867C96.1093 24.9608 96.2026 25.2121 96.3666 25.4127C96.5305 25.6132 96.7439 25.7629 97.0068 25.8617C97.2726 25.9606 97.5694 26.01 97.8973 26.01C98.2393 26.01 98.539 25.9592 98.7962 25.8575C99.0563 25.753 99.2598 25.6089 99.4068 25.4254C99.5538 25.239 99.6287 25.0215 99.6315 24.7729C99.6287 24.547 99.5622 24.3606 99.4322 24.2137C99.3022 24.064 99.1198 23.9398 98.8852 23.8409C98.6534 23.7393 98.3821 23.6489 98.0711 23.5698L97.0832 23.3156C96.368 23.132 95.8026 22.8538 95.3871 22.481C94.9744 22.1054 94.768 21.6069 94.768 20.9856C94.768 20.4744 94.9065 20.0267 95.1836 19.6426C95.4634 19.2585 95.8436 18.9606 96.3242 18.7487C96.8047 18.5341 97.3489 18.4268 97.9566 18.4268C98.5729 18.4268 99.1128 18.5341 99.5764 18.7487C100.043 18.9606 100.409 19.2557 100.675 19.6341C100.94 20.0098 101.077 20.4419 101.086 20.9305H99.5721Z" fill="#141D24"/>
<path id="Vector_13" d="M87.3854 27.3479C86.7494 27.3479 86.1982 27.2081 85.7317 26.9285C85.2653 26.6489 84.9035 26.2577 84.6463 25.755C84.3919 25.2523 84.2646 24.6648 84.2646 23.9926C84.2646 23.3205 84.3919 22.7316 84.6463 22.226C84.9035 21.7205 85.2653 21.3279 85.7317 21.0483C86.1982 20.7687 86.7494 20.6289 87.3854 20.6289C88.0214 20.6289 88.5727 20.7687 89.0391 21.0483C89.5055 21.3279 89.8659 21.7205 90.1203 22.226C90.3776 22.7316 90.5062 23.3205 90.5062 23.9926C90.5062 24.6648 90.3776 25.2523 90.1203 25.755C89.8659 26.2577 89.5055 26.6489 89.0391 26.9285C88.5727 27.2081 88.0214 27.3479 87.3854 27.3479ZM87.3939 26.1193C87.7388 26.1193 88.0271 26.0247 88.2589 25.8355C88.4907 25.6434 88.6631 25.3864 88.7762 25.0645C88.8921 24.7425 88.95 24.3838 88.95 23.9884C88.95 23.5902 88.8921 23.2301 88.7762 22.9081C88.6631 22.5833 88.4907 22.3249 88.2589 22.1328C88.0271 21.9408 87.7388 21.8448 87.3939 21.8448C87.0405 21.8448 86.7466 21.9408 86.5119 22.1328C86.2801 22.3249 86.1063 22.5833 85.9904 22.9081C85.8773 23.2301 85.8208 23.5902 85.8208 23.9884C85.8208 24.3838 85.8773 24.7425 85.9904 25.0645C86.1063 25.3864 86.2801 25.6434 86.5119 25.8355C86.7466 26.0247 87.0405 26.1193 87.3939 26.1193Z" fill="#141D24"/>
<path id="Vector_14" d="M83.3398 20.7206V21.9068H79.5957V20.7206H83.3398ZM80.5201 19.1616H82.055V25.2706C82.055 25.4767 82.0861 25.6349 82.1483 25.7451C82.2133 25.8524 82.2981 25.9258 82.4027 25.9653C82.5073 26.0049 82.6232 26.0247 82.7504 26.0247C82.8465 26.0247 82.9341 26.0176 83.0133 26.0035C83.0952 25.9894 83.1574 25.9766 83.1998 25.9653L83.4585 27.1643C83.3765 27.1925 83.2592 27.2236 83.1066 27.2575C82.9567 27.2914 82.773 27.3111 82.5553 27.3168C82.1709 27.3281 81.8246 27.2702 81.5165 27.1431C81.2084 27.0132 80.9639 26.8126 80.783 26.5415C80.6049 26.2704 80.5172 25.9315 80.5201 25.5248V19.1616Z" fill="#141D24"/>
<path id="Vector_15" d="M69.6504 29.661V20.7136H71.1599V21.7897H71.2489C71.3281 21.6315 71.4397 21.4635 71.5839 21.2856C71.7281 21.1048 71.9231 20.9509 72.169 20.8238C72.415 20.6939 72.7288 20.6289 73.1104 20.6289C73.6135 20.6289 74.0672 20.7574 74.4715 21.0144C74.8785 21.2686 75.2008 21.6457 75.4382 22.1456C75.6785 22.6426 75.7986 23.2527 75.7986 23.9757C75.7986 24.6902 75.6813 25.2975 75.4467 25.7974C75.2121 26.2973 74.8927 26.6785 74.4884 26.9412C74.0842 27.2039 73.6263 27.3352 73.1146 27.3352C72.7415 27.3352 72.4319 27.2731 72.186 27.1488C71.9401 27.0245 71.7422 26.8748 71.5924 26.6997C71.4454 26.5218 71.3309 26.3538 71.2489 26.1956H71.1853V29.661H69.6504ZM71.1556 23.9672C71.1556 24.388 71.215 24.7566 71.3337 25.0729C71.4553 25.3893 71.6291 25.6364 71.8553 25.8143C72.0843 25.9894 72.3613 26.077 72.6864 26.077C73.0256 26.077 73.3097 25.9866 73.5386 25.8058C73.7676 25.6223 73.94 25.3723 74.0559 25.056C74.1747 24.7368 74.234 24.3739 74.234 23.9672C74.234 23.5633 74.1761 23.2047 74.0602 22.8912C73.9443 22.5777 73.7718 22.332 73.5429 22.154C73.3139 21.9761 73.0284 21.8871 72.6864 21.8871C72.3584 21.8871 72.08 21.9733 71.851 22.1456C71.6221 22.3178 71.4482 22.5593 71.3295 22.87C71.2136 23.1807 71.1556 23.5464 71.1556 23.9672Z" fill="#141D24"/>
<path id="Vector_16" d="M66.5621 27.225V20.7179H68.097V27.225H66.5621ZM67.3338 19.7943C67.0907 19.7943 66.8815 19.7138 66.7062 19.5528C66.531 19.389 66.4434 19.1927 66.4434 18.964C66.4434 18.7324 66.531 18.5361 66.7062 18.3751C66.8815 18.2113 67.0907 18.1294 67.3338 18.1294C67.5797 18.1294 67.7889 18.2113 67.9613 18.3751C68.1366 18.5361 68.2242 18.7324 68.2242 18.964C68.2242 19.1927 68.1366 19.389 67.9613 19.5528C67.7889 19.7138 67.5797 19.7943 67.3338 19.7943Z" fill="#141D24"/>
<path id="Vector_17" d="M61.8154 27.2234V20.7162H63.3037V21.8008H63.3716C63.4903 21.4251 63.6938 21.1357 63.9822 20.9323C64.2733 20.7261 64.6055 20.623 64.9786 20.623C65.0634 20.623 65.1581 20.6273 65.2627 20.6358C65.3701 20.6414 65.4591 20.6513 65.5298 20.6654V22.0761C65.4648 22.0536 65.3616 22.0338 65.2203 22.0168C65.0818 21.9971 64.9475 21.9872 64.8175 21.9872C64.5376 21.9872 64.286 22.0479 64.0627 22.1693C63.8422 22.288 63.6684 22.4532 63.5412 22.665C63.414 22.8768 63.3504 23.1211 63.3504 23.3979V27.2234H61.8154Z" fill="#141D24"/>
<path id="Vector_18" d="M60.5195 20.7206V21.9068H56.7754V20.7206H60.5195ZM57.6997 19.1616H59.2347V25.2706C59.2347 25.4767 59.2658 25.6349 59.328 25.7451C59.393 25.8524 59.4778 25.9258 59.5824 25.9653C59.687 26.0049 59.8029 26.0247 59.9301 26.0247C60.0262 26.0247 60.1138 26.0176 60.193 26.0035C60.2749 25.9894 60.3371 25.9766 60.3795 25.9653L60.6382 27.1643C60.5562 27.1925 60.4389 27.2236 60.2862 27.2575C60.1364 27.2914 59.9527 27.3111 59.735 27.3168C59.3506 27.3281 59.0043 27.2702 58.6962 27.1431C58.3881 27.0132 58.1436 26.8126 57.9626 26.5415C57.7846 26.2704 57.6969 25.9315 57.6997 25.5248V19.1616Z" fill="#141D24"/>
<path id="Vector_19" d="M49.5898 27.2234V20.7162H51.0781V21.8008H51.146C51.2647 21.4251 51.4682 21.1357 51.7566 20.9323C52.0477 20.7261 52.3799 20.623 52.753 20.623C52.8378 20.623 52.9325 20.6273 53.0371 20.6358C53.1445 20.6414 53.2336 20.6513 53.3042 20.6654V22.0761C53.2392 22.0536 53.136 22.0338 52.9947 22.0168C52.8562 21.9971 52.7219 21.9872 52.5919 21.9872C52.312 21.9872 52.0604 22.0479 51.8371 22.1693C51.6166 22.288 51.4428 22.4532 51.3156 22.665C51.1884 22.8768 51.1248 23.1211 51.1248 23.3979V27.2234H49.5898Z" fill="#141D24"/>
<path id="Vector_20" d="M46.4617 24.497V20.7266H47.9966V27.2337H46.5083V26.0772H46.4405C46.2935 26.4415 46.0518 26.7395 45.7154 26.9711C45.3818 27.2027 44.9705 27.3185 44.4815 27.3185C44.0547 27.3185 43.6773 27.2239 43.3494 27.0346C43.0243 26.8426 42.7699 26.5644 42.5862 26.2C42.4024 25.8329 42.3105 25.3895 42.3105 24.8698V20.7266H43.8455V24.6326C43.8455 25.0449 43.9586 25.3725 44.1847 25.6154C44.4108 25.8583 44.7076 25.9798 45.0751 25.9798C45.3013 25.9798 45.5203 25.9247 45.7324 25.8145C45.9444 25.7044 46.1182 25.5406 46.2539 25.3231C46.3924 25.1028 46.4617 24.8274 46.4617 24.497Z" fill="#141D24"/>
<path id="Vector_21" d="M37.9088 27.3479C37.2728 27.3479 36.7216 27.2081 36.2552 26.9285C35.7888 26.6489 35.4269 26.2577 35.1697 25.755C34.9153 25.2523 34.7881 24.6648 34.7881 23.9926C34.7881 23.3205 34.9153 22.7316 35.1697 22.226C35.4269 21.7205 35.7888 21.3279 36.2552 21.0483C36.7216 20.7687 37.2728 20.6289 37.9088 20.6289C38.5449 20.6289 39.0961 20.7687 39.5625 21.0483C40.0289 21.3279 40.3893 21.7205 40.6437 22.226C40.901 22.7316 41.0296 23.3205 41.0296 23.9926C41.0296 24.6648 40.901 25.2523 40.6437 25.755C40.3893 26.2577 40.0289 26.6489 39.5625 26.9285C39.0961 27.2081 38.5449 27.3479 37.9088 27.3479ZM37.9173 26.1193C38.2622 26.1193 38.5505 26.0247 38.7823 25.8355C39.0141 25.6434 39.1865 25.3864 39.2996 25.0645C39.4155 24.7425 39.4735 24.3838 39.4735 23.9884C39.4735 23.5902 39.4155 23.2301 39.2996 22.9081C39.1865 22.5833 39.0141 22.3249 38.7823 22.1328C38.5505 21.9408 38.2622 21.8448 37.9173 21.8448C37.564 21.8448 37.27 21.9408 37.0354 22.1328C36.8036 22.3249 36.6297 22.5833 36.5138 22.9081C36.4008 23.2301 36.3442 23.5902 36.3442 23.9884C36.3442 24.3838 36.4008 24.7425 36.5138 25.0645C36.6297 25.3864 36.8036 25.6434 37.0354 25.8355C37.27 26.0247 37.564 26.1193 37.9173 26.1193Z" fill="#141D24"/>
<path id="Vector_22" d="M29.3639 29.6739C29.1547 29.6739 28.9611 29.657 28.783 29.6231C28.6078 29.592 28.4678 29.5553 28.3632 29.5129L28.7194 28.3183C28.9427 28.3832 29.142 28.4143 29.3173 28.4115C29.4925 28.4086 29.6466 28.3536 29.7794 28.2462C29.9151 28.1417 30.0296 27.9666 30.1229 27.7209L30.2543 27.3693L27.8926 20.7266H29.5208L31.0218 25.6408H31.0897L32.5949 20.7266H34.2274L31.6197 28.0217C31.4981 28.3663 31.337 28.6614 31.1363 28.9071C30.9356 29.1557 30.6897 29.3449 30.3985 29.4748C30.1102 29.6076 29.7653 29.6739 29.3639 29.6739Z" fill="#141D24"/>
<path id="Vector_23" d="M19.7068 23.408V27.2208H18.1719V20.7136H19.639V21.8193H19.7153C19.8651 21.455 20.104 21.1655 20.4319 20.9509C20.7626 20.7362 21.1711 20.6289 21.6573 20.6289C22.1067 20.6289 22.4983 20.7249 22.8318 20.917C23.1682 21.109 23.4283 21.3872 23.612 21.7516C23.7986 22.1159 23.8904 22.5579 23.8876 23.0776V27.2208H22.3527V23.3148C22.3527 22.8799 22.2396 22.5395 22.0135 22.2938C21.7902 22.0481 21.4806 21.9253 21.0849 21.9253C20.8163 21.9253 20.5775 21.9846 20.3683 22.1032C20.1619 22.219 19.9994 22.387 19.8807 22.6073C19.7648 22.8276 19.7068 23.0945 19.7068 23.408Z" fill="#141D24"/>
<path id="Vector_24" d="M13.1687 27.3521C12.756 27.3521 12.3843 27.2787 12.0535 27.1318C11.7256 26.9822 11.4656 26.7619 11.2733 26.471C11.084 26.1801 10.9893 25.8214 10.9893 25.3949C10.9893 25.0277 11.0571 24.7241 11.1928 24.4841C11.3285 24.244 11.5136 24.0519 11.7482 23.9079C11.9829 23.7639 12.2472 23.6551 12.5412 23.5817C12.838 23.5054 13.1447 23.4504 13.4613 23.4165C13.8429 23.3769 14.1524 23.3416 14.3899 23.3106C14.6273 23.2767 14.7998 23.2258 14.9072 23.1581C15.0174 23.0875 15.0725 22.9787 15.0725 22.8319V22.8064C15.0725 22.4873 14.9778 22.2402 14.7884 22.0651C14.599 21.89 14.3263 21.8024 13.9701 21.8024C13.5941 21.8024 13.2959 21.8843 13.0754 22.0481C12.8578 22.2119 12.7108 22.4054 12.6344 22.6285L11.2013 22.4252C11.3143 22.0298 11.5009 21.6993 11.761 21.4338C12.021 21.1655 12.339 20.965 12.715 20.8323C13.091 20.6967 13.5065 20.6289 13.9616 20.6289C14.2754 20.6289 14.5877 20.6656 14.8987 20.7391C15.2096 20.8125 15.4937 20.9339 15.751 21.1034C16.0082 21.27 16.2146 21.4974 16.37 21.7855C16.5283 22.0735 16.6075 22.4336 16.6075 22.8657V27.2208H15.1319V26.3269H15.081C14.9877 26.5077 14.8563 26.6771 14.6867 26.8353C14.5199 26.9906 14.3093 27.1163 14.0549 27.2123C13.8033 27.3055 13.5079 27.3521 13.1687 27.3521ZM13.5673 26.2252C13.8754 26.2252 14.1425 26.1645 14.3687 26.0431C14.5948 25.9188 14.7687 25.755 14.8902 25.5517C15.0146 25.3483 15.0768 25.1266 15.0768 24.8865V24.1197C15.0287 24.1593 14.9467 24.196 14.8308 24.2299C14.7178 24.2638 14.5906 24.2934 14.4492 24.3188C14.3079 24.3443 14.168 24.3669 14.0295 24.3866C13.8909 24.4064 13.7708 24.4233 13.669 24.4375C13.4401 24.4685 13.2351 24.5194 13.0542 24.59C12.8733 24.6606 12.7306 24.7594 12.626 24.8865C12.5214 25.0108 12.4691 25.1718 12.4691 25.3695C12.4691 25.6519 12.5723 25.8651 12.7786 26.0092C12.985 26.1532 13.2479 26.2252 13.5673 26.2252Z" fill="#141D24"/>
<path id="Vector_25" d="M9.73709 18.5474V27.2236H8.20215V18.5474H9.73709Z" fill="#141D24"/>
<path id="Vector_26" d="M0.734375 29.661V20.7136H2.24387V21.7897H2.33291C2.41206 21.6315 2.52372 21.4635 2.66789 21.2856C2.81205 21.1048 3.0071 20.9509 3.25303 20.8238C3.49896 20.6939 3.81273 20.6289 4.19434 20.6289C4.69751 20.6289 5.15121 20.7574 5.55544 21.0144C5.96249 21.2686 6.28474 21.6457 6.52219 22.1456C6.76247 22.6426 6.88261 23.2527 6.88261 23.9757C6.88261 24.6902 6.76529 25.2975 6.53067 25.7974C6.29605 26.2973 5.97662 26.6785 5.5724 26.9412C5.16817 27.2039 4.71023 27.3352 4.19859 27.3352C3.82545 27.3352 3.51592 27.2731 3.26999 27.1488C3.02406 27.0245 2.82619 26.8748 2.67637 26.6997C2.52938 26.5218 2.41489 26.3538 2.33291 26.1956H2.26931V29.661H0.734375ZM2.23963 23.9672C2.23963 24.388 2.29899 24.7566 2.41772 25.0729C2.53927 25.3893 2.71312 25.6364 2.93926 25.8143C3.16823 25.9894 3.44525 26.077 3.77033 26.077C4.10954 26.077 4.39363 25.9866 4.6226 25.8058C4.85157 25.6223 5.024 25.3723 5.1399 25.056C5.25862 24.7368 5.31799 24.3739 5.31799 23.9672C5.31799 23.5633 5.26004 23.2047 5.14414 22.8912C5.02824 22.5777 4.85581 22.332 4.62684 22.154C4.39787 21.9761 4.11237 21.8871 3.77033 21.8871C3.44242 21.8871 3.16399 21.9733 2.93502 22.1456C2.70605 22.3178 2.5322 22.5593 2.41348 22.87C2.29758 23.1807 2.23963 23.5464 2.23963 23.9672Z" fill="#141D24"/>
<path id="Vector_27" d="M154.139 9.45533C153.503 9.45533 152.952 9.31553 152.486 9.03592C152.019 8.75632 151.657 8.36515 151.4 7.86243C151.146 7.3597 151.019 6.77225 151.019 6.10007C151.019 5.42788 151.146 4.83902 151.4 4.33347C151.657 3.82792 152.019 3.43534 152.486 3.15574C152.952 2.87613 153.503 2.73633 154.139 2.73633C154.775 2.73633 155.327 2.87613 155.793 3.15574C156.259 3.43534 156.62 3.82792 156.874 4.33347C157.131 4.83902 157.26 5.42788 157.26 6.10007C157.26 6.77225 157.131 7.3597 156.874 7.86243C156.62 8.36515 156.259 8.75632 155.793 9.03592C155.327 9.31553 154.775 9.45533 154.139 9.45533ZM154.148 8.22676C154.493 8.22676 154.781 8.13215 155.013 7.94292C155.245 7.75087 155.417 7.49386 155.53 7.17189C155.646 6.84992 155.704 6.49123 155.704 6.09583C155.704 5.6976 155.646 5.33751 155.53 5.01554C155.417 4.69074 155.245 4.43232 155.013 4.24027C154.781 4.04821 154.493 3.95219 154.148 3.95219C153.794 3.95219 153.5 4.04821 153.266 4.24027C153.034 4.43232 152.86 4.69074 152.744 5.01554C152.631 5.33751 152.575 5.6976 152.575 6.09583C152.575 6.49123 152.631 6.84992 152.744 7.17189C152.86 7.49386 153.034 7.75087 153.266 7.94292C153.5 8.13215 153.794 8.22676 154.148 8.22676Z" fill="#141D24"/>
<path id="Vector_28" d="M150.066 2.82805V4.01426H146.322V2.82805H150.066ZM147.247 1.26904H148.782V7.37799C148.782 7.58417 148.813 7.74233 148.875 7.85248C148.94 7.9598 149.025 8.03323 149.129 8.07277C149.234 8.11231 149.35 8.13208 149.477 8.13208C149.573 8.13208 149.661 8.12502 149.74 8.1109C149.822 8.09678 149.884 8.08407 149.926 8.07277L150.185 9.27168C150.103 9.29993 149.986 9.33099 149.833 9.36488C149.683 9.39878 149.5 9.41855 149.282 9.4242C148.897 9.43549 148.551 9.37759 148.243 9.2505C147.935 9.12058 147.69 8.92006 147.51 8.64893C147.331 8.37779 147.244 8.03888 147.247 7.63218V1.26904Z" fill="#141D24"/>
<path id="Vector_29" d="M138.869 9.45956C138.456 9.45956 138.084 9.38613 137.754 9.23927C137.426 9.08958 137.166 8.86928 136.974 8.57838C136.784 8.28748 136.689 7.92879 136.689 7.50232C136.689 7.13517 136.757 6.83155 136.893 6.59149C137.029 6.35142 137.214 6.15937 137.448 6.01533C137.683 5.87129 137.947 5.76256 138.241 5.68913C138.538 5.61287 138.845 5.5578 139.161 5.52391C139.543 5.48437 139.853 5.44906 140.09 5.418C140.328 5.3841 140.5 5.33327 140.607 5.26548C140.718 5.19488 140.773 5.08614 140.773 4.93928V4.91386C140.773 4.59471 140.678 4.34759 140.489 4.17248C140.299 3.99738 140.026 3.90982 139.67 3.90982C139.294 3.90982 138.996 3.99173 138.776 4.15554C138.558 4.31934 138.411 4.51281 138.335 4.73593L136.901 4.53258C137.015 4.13718 137.201 3.80674 137.461 3.54125C137.721 3.27294 138.039 3.07242 138.415 2.93968C138.791 2.80411 139.207 2.73633 139.662 2.73633C139.976 2.73633 140.288 2.77304 140.599 2.84648C140.91 2.91991 141.194 3.04135 141.451 3.21081C141.708 3.37744 141.915 3.6048 142.07 3.89288C142.229 4.18095 142.308 4.54105 142.308 4.97317V9.32823H140.832V8.43434H140.781C140.688 8.6151 140.556 8.78455 140.387 8.94271C140.22 9.09805 140.01 9.22373 139.755 9.31976C139.504 9.41296 139.208 9.45956 138.869 9.45956ZM139.267 8.33267C139.576 8.33267 139.843 8.27194 140.069 8.1505C140.295 8.02623 140.469 7.86242 140.59 7.65907C140.715 7.45572 140.777 7.23402 140.777 6.99395V6.22716C140.729 6.2667 140.647 6.30341 140.531 6.3373C140.418 6.37119 140.291 6.40085 140.149 6.42627C140.008 6.45169 139.868 6.47428 139.73 6.49405C139.591 6.51382 139.471 6.53077 139.369 6.54489C139.14 6.57596 138.935 6.62679 138.754 6.6974C138.574 6.76801 138.431 6.86686 138.326 6.99395C138.222 7.11822 138.169 7.27921 138.169 7.47691C138.169 7.75934 138.272 7.97257 138.479 8.11661C138.685 8.26065 138.948 8.33267 139.267 8.33267Z" fill="#141D24"/>
<path id="Vector_30" d="M131.892 9.44541C131.38 9.44541 130.922 9.31408 130.518 9.05142C130.114 8.78876 129.795 8.40748 129.56 7.90758C129.325 7.40768 129.208 6.80046 129.208 6.08591C129.208 5.36289 129.327 4.75284 129.564 4.25577C129.804 3.75586 130.128 3.37882 130.535 3.12463C130.942 2.86762 131.396 2.73912 131.896 2.73912C132.278 2.73912 132.592 2.80408 132.838 2.93399C133.084 3.06109 133.279 3.21501 133.423 3.39577C133.567 3.5737 133.679 3.74174 133.758 3.8999H133.821V0.654785H135.36V9.33103H133.851V8.30581H133.758C133.679 8.46397 133.564 8.63201 133.414 8.80995C133.264 8.98505 133.067 9.13474 132.821 9.25901C132.575 9.38328 132.265 9.44541 131.892 9.44541ZM132.32 8.18719C132.645 8.18719 132.922 8.09963 133.151 7.92453C133.38 7.7466 133.554 7.49947 133.673 7.18315C133.792 6.86683 133.851 6.49826 133.851 6.07744C133.851 5.65662 133.792 5.29087 133.673 4.9802C133.557 4.66952 133.385 4.42805 133.156 4.25577C132.929 4.08348 132.651 3.99734 132.32 3.99734C131.978 3.99734 131.693 4.08631 131.464 4.26424C131.235 4.44217 131.062 4.68788 130.946 5.00138C130.831 5.31488 130.773 5.67356 130.773 6.07744C130.773 6.48414 130.831 6.84706 130.946 7.1662C131.065 7.48253 131.239 7.73247 131.468 7.91605C131.7 8.09681 131.984 8.18719 132.32 8.18719Z" fill="#141D24"/>
<path id="Vector_31" d="M126.38 9.33246V2.82528H127.915V9.33246H126.38ZM127.152 1.90174C126.909 1.90174 126.7 1.82125 126.525 1.66026C126.349 1.49645 126.262 1.30016 126.262 1.0714C126.262 0.839804 126.349 0.643515 126.525 0.48253C126.7 0.318721 126.909 0.236816 127.152 0.236816C127.398 0.236816 127.607 0.318721 127.78 0.48253C127.955 0.643515 128.043 0.839804 128.043 1.0714C128.043 1.30016 127.955 1.49645 127.78 1.66026C127.607 1.82125 127.398 1.90174 127.152 1.90174Z" fill="#141D24"/>
<path id="Vector_32" d="M121.634 9.33085V2.82367H123.122V3.9082H123.19C123.309 3.53257 123.512 3.24308 123.801 3.03973C124.092 2.83356 124.424 2.73047 124.797 2.73047C124.882 2.73047 124.976 2.73471 125.081 2.74318C125.188 2.74883 125.277 2.75871 125.348 2.77283V4.18357C125.283 4.16097 125.18 4.1412 125.039 4.12426C124.9 4.10449 124.766 4.0946 124.636 4.0946C124.356 4.0946 124.104 4.15533 123.881 4.27677C123.661 4.39539 123.487 4.56061 123.36 4.77243C123.232 4.98426 123.169 5.22856 123.169 5.50534V9.33085H121.634Z" fill="#141D24"/>
<path id="Vector_33" d="M117.205 9.45533C116.569 9.45533 116.017 9.31553 115.551 9.03592C115.085 8.75632 114.723 8.36515 114.466 7.86243C114.211 7.3597 114.084 6.77225 114.084 6.10007C114.084 5.42788 114.211 4.83902 114.466 4.33347C114.723 3.82792 115.085 3.43534 115.551 3.15574C116.017 2.87613 116.569 2.73633 117.205 2.73633C117.841 2.73633 118.392 2.87613 118.858 3.15574C119.325 3.43534 119.685 3.82792 119.94 4.33347C120.197 4.83902 120.326 5.42788 120.326 6.10007C120.326 6.77225 120.197 7.3597 119.94 7.86243C119.685 8.36515 119.325 8.75632 118.858 9.03592C118.392 9.31553 117.841 9.45533 117.205 9.45533ZM117.213 8.22676C117.558 8.22676 117.846 8.13215 118.078 7.94292C118.31 7.75087 118.482 7.49386 118.596 7.17189C118.711 6.84992 118.769 6.49123 118.769 6.09583C118.769 5.6976 118.711 5.33751 118.596 5.01554C118.482 4.69074 118.31 4.43232 118.078 4.24027C117.846 4.04821 117.558 3.95219 117.213 3.95219C116.86 3.95219 116.566 4.04821 116.331 4.24027C116.099 4.43232 115.926 4.69074 115.81 5.01554C115.697 5.33751 115.64 5.6976 115.64 6.09583C115.64 6.49123 115.697 6.84992 115.81 7.17189C115.926 7.49386 116.099 7.75087 116.331 7.94292C116.566 8.13215 116.86 8.22676 117.213 8.22676Z" fill="#141D24"/>
<path id="Vector_34" d="M112.789 0.654785V9.33102H111.254V0.654785H112.789Z" fill="#141D24"/>
<path id="Vector_35" d="M104.337 9.33102V0.654785H109.9V1.97232H105.91V4.32778H109.518V5.64531H105.91V9.33102H104.337Z" fill="#141D24"/>
<path id="Vector_36" d="M95.5662 5.51544V9.32823H94.0312V2.82106H95.4983V3.92677H95.5747C95.7245 3.56243 95.9633 3.27294 96.2913 3.0583C96.622 2.84365 97.0305 2.73633 97.5167 2.73633C97.9661 2.73633 98.3576 2.83235 98.6912 3.02441C99.0276 3.21646 99.2876 3.49465 99.4714 3.85899C99.6579 4.22332 99.7498 4.66532 99.747 5.18499V9.32823H98.2121V5.42223C98.2121 4.98729 98.099 4.64696 97.8728 4.40125C97.6495 4.15554 97.34 4.03268 96.9442 4.03268C96.6757 4.03268 96.4368 4.09199 96.2277 4.21061C96.0213 4.32641 95.8588 4.49445 95.74 4.71475C95.6241 4.93504 95.5662 5.20194 95.5662 5.51544Z" fill="#141D24"/>
<path id="Vector_37" d="M90.9156 9.33246V2.82528H92.4505V9.33246H90.9156ZM91.6873 1.90174C91.4442 1.90174 91.235 1.82125 91.0598 1.66026C90.8845 1.49645 90.7969 1.30016 90.7969 1.0714C90.7969 0.839804 90.8845 0.643515 91.0598 0.48253C91.235 0.318721 91.4442 0.236816 91.6873 0.236816C91.9332 0.236816 92.1424 0.318721 92.3148 0.48253C92.4901 0.643515 92.5777 0.839804 92.5777 1.0714C92.5777 1.30016 92.4901 1.49645 92.3148 1.66026C92.1424 1.82125 91.9332 1.90174 91.6873 1.90174Z" fill="#141D24"/>
<path id="Vector_38" d="M82.0075 11.7677C81.7983 11.7677 81.6046 11.7507 81.4266 11.7168C81.2513 11.6858 81.1114 11.6491 81.0068 11.6067L81.363 10.412C81.5863 10.477 81.7856 10.508 81.9608 10.5052C82.1361 10.5024 82.2901 10.4473 82.423 10.34C82.5587 10.2355 82.6732 10.0604 82.7665 9.81468L82.8979 9.46305L80.5361 2.82031H82.1644L83.6654 7.73459H83.7332L85.2385 2.82031H86.8709L84.2632 10.1155C84.1417 10.46 83.9806 10.7552 83.7799 11.0009C83.5792 11.2494 83.3332 11.4386 83.0421 11.5686C82.7537 11.7013 82.4089 11.7677 82.0075 11.7677Z" fill="#141D24"/>
<path id="Vector_39" d="M76.125 9.33085V2.82367H77.6133V3.9082H77.6811C77.7999 3.53257 78.0034 3.24308 78.2917 3.03973C78.5829 2.83356 78.915 2.73047 79.2882 2.73047C79.373 2.73047 79.4677 2.73471 79.5723 2.74318C79.6797 2.74883 79.7687 2.75871 79.8394 2.77283V4.18357C79.7744 4.16097 79.6712 4.1412 79.5298 4.12426C79.3913 4.10449 79.2571 4.0946 79.127 4.0946C78.8472 4.0946 78.5956 4.15533 78.3723 4.27677C78.1518 4.39539 77.9779 4.56061 77.8507 4.77243C77.7235 4.98426 77.6599 5.22856 77.6599 5.50534V9.33085H76.125Z" fill="#141D24"/>
<path id="Vector_40" d="M71.1492 9.45956C70.7365 9.45956 70.3647 9.38613 70.034 9.23927C69.7061 9.08958 69.446 8.86928 69.2538 8.57838C69.0644 8.28748 68.9697 7.92879 68.9697 7.50232C68.9697 7.13517 69.0376 6.83155 69.1733 6.59149C69.3089 6.35142 69.4941 6.15937 69.7287 6.01533C69.9633 5.87129 70.2276 5.76256 70.5216 5.68913C70.8184 5.61287 71.1251 5.5578 71.4417 5.52391C71.8234 5.48437 72.1329 5.44906 72.3703 5.418C72.6078 5.3841 72.7802 5.33327 72.8876 5.26548C72.9979 5.19488 73.053 5.08614 73.053 4.93928V4.91386C73.053 4.59471 72.9583 4.34759 72.7689 4.17248C72.5795 3.99738 72.3067 3.90982 71.9506 3.90982C71.5746 3.90982 71.2764 3.99173 71.0559 4.15554C70.8382 4.31934 70.6912 4.51281 70.6149 4.73593L69.1817 4.53258C69.2948 4.13718 69.4814 3.80674 69.7414 3.54125C70.0015 3.27294 70.3195 3.07242 70.6955 2.93968C71.0714 2.80411 71.487 2.73633 71.9421 2.73633C72.2559 2.73633 72.5682 2.77304 72.8792 2.84648C73.1901 2.91991 73.4742 3.04135 73.7314 3.21081C73.9887 3.37744 74.195 3.6048 74.3505 3.89288C74.5088 4.18095 74.5879 4.54105 74.5879 4.97317V9.32823H73.1124V8.43434H73.0615C72.9682 8.6151 72.8368 8.78455 72.6671 8.94271C72.5004 9.09805 72.2898 9.22373 72.0354 9.31976C71.7838 9.41296 71.4884 9.45956 71.1492 9.45956ZM71.5477 8.33267C71.8559 8.33267 72.123 8.27194 72.3491 8.1505C72.5753 8.02623 72.7491 7.86242 72.8707 7.65907C72.9951 7.45572 73.0572 7.23402 73.0572 6.99395V6.22716C73.0092 6.2667 72.9272 6.30341 72.8113 6.3373C72.6982 6.37119 72.571 6.40085 72.4297 6.42627C72.2884 6.45169 72.1484 6.47428 72.0099 6.49405C71.8714 6.51382 71.7513 6.53077 71.6495 6.54489C71.4205 6.57596 71.2156 6.62679 71.0347 6.6974C70.8538 6.76801 70.711 6.86686 70.6064 6.99395C70.5018 7.11822 70.4495 7.27921 70.4495 7.47691C70.4495 7.75934 70.5527 7.97257 70.7591 8.11661C70.9654 8.26065 71.2283 8.33267 71.5477 8.33267Z" fill="#141D24"/>
<path id="Vector_41" d="M66.1366 3.42343C66.066 3.19467 65.9684 2.98991 65.8441 2.80915C65.7225 2.62557 65.5755 2.46882 65.4031 2.3389C65.2335 2.20899 65.0384 2.11155 64.8179 2.04659C64.5974 1.97881 64.3572 1.94492 64.0971 1.94492C63.6307 1.94492 63.2152 2.06212 62.8505 2.29654C62.4858 2.53096 62.1989 2.87552 61.9897 3.33023C61.7834 3.78212 61.6802 4.33286 61.6802 4.98245C61.6802 5.63768 61.7834 6.19266 61.9897 6.64737C62.1961 7.10208 62.483 7.44806 62.8505 7.6853C63.218 7.91971 63.6448 8.03692 64.131 8.03692C64.572 8.03692 64.9536 7.95219 65.2759 7.78273C65.6009 7.61328 65.8511 7.37321 66.0264 7.06254C66.2016 6.74904 66.2893 6.38188 66.2893 5.96106L66.6454 6.01614H64.2879V4.78757H67.8115V5.82973C67.8115 6.57252 67.6532 7.21505 67.3366 7.75732C67.02 8.29958 66.5847 8.71758 66.0306 9.0113C65.4766 9.30221 64.8405 9.44766 64.1225 9.44766C63.3226 9.44766 62.6201 9.26831 62.0152 8.90963C61.4131 8.54812 60.9424 8.03551 60.6032 7.3718C60.2668 6.70527 60.0986 5.91446 60.0986 4.99939C60.0986 4.29897 60.1976 3.67338 60.3954 3.12265C60.5961 2.57191 60.876 2.10449 61.235 1.72038C61.594 1.33346 62.0152 1.03973 62.4986 0.839204C62.9819 0.635854 63.5077 0.53418 64.0759 0.53418C64.5565 0.53418 65.0045 0.604787 65.42 0.746002C65.8356 0.884392 66.2045 1.08209 66.5267 1.3391C66.8518 1.59611 67.1189 1.90114 67.3281 2.25418C67.5373 2.60721 67.6744 2.99697 67.7394 3.42343H66.1366Z" fill="#141D24"/>
<path id="Vector_42" d="M56.0155 2.82805V4.01426H52.2715V2.82805H56.0155ZM53.1958 1.26904H54.7308V7.37799C54.7308 7.58417 54.7619 7.74233 54.8241 7.85248C54.8891 7.9598 54.9739 8.03323 55.0785 8.07277C55.1831 8.11231 55.299 8.13208 55.4262 8.13208C55.5223 8.13208 55.6099 8.12502 55.6891 8.1109C55.771 8.09678 55.8332 8.08407 55.8756 8.07277L56.1343 9.27168C56.0523 9.29993 55.935 9.33099 55.7823 9.36488C55.6325 9.39878 55.4488 9.41855 55.2311 9.4242C54.8467 9.43549 54.5004 9.37759 54.1923 9.2505C53.8842 9.12058 53.6396 8.92006 53.4587 8.64893C53.2806 8.37779 53.193 8.03888 53.1958 7.63218V1.26904Z" fill="#141D24"/>
<path id="Vector_43" d="M51.3695 4.54105L49.9702 4.69357C49.9307 4.55235 49.8614 4.41961 49.7625 4.29534C49.6664 4.17107 49.5363 4.07081 49.3724 3.99455C49.2084 3.9183 49.0077 3.88017 48.7703 3.88017C48.4508 3.88017 48.1823 3.94936 47.9646 4.08775C47.7498 4.22614 47.6438 4.40549 47.6466 4.62578C47.6438 4.81501 47.713 4.96894 47.8544 5.08756C47.9986 5.20618 48.236 5.30361 48.5667 5.37987L49.6777 5.61711C50.2939 5.74985 50.7518 5.96026 51.0515 6.24834C51.3539 6.53642 51.5066 6.91346 51.5094 7.37947C51.5066 7.789 51.3864 8.15051 51.149 8.464C50.9144 8.77468 50.5879 9.01757 50.1695 9.19267C49.7512 9.36778 49.2706 9.45533 48.7279 9.45533C47.9307 9.45533 47.289 9.2887 46.8028 8.95543C46.3166 8.61934 46.0269 8.15192 45.9336 7.55317L47.4304 7.40913C47.4982 7.70286 47.6424 7.92456 47.8629 8.07425C48.0834 8.22394 48.3703 8.29878 48.7236 8.29878C49.0883 8.29878 49.3808 8.22394 49.6013 8.07425C49.8247 7.92456 49.9363 7.73957 49.9363 7.51928C49.9363 7.33287 49.8642 7.17895 49.7201 7.0575C49.5787 6.93606 49.3582 6.84286 49.0586 6.7779L47.9477 6.54489C47.323 6.41498 46.8608 6.19609 46.5611 5.88824C46.2615 5.57757 46.1131 5.18499 46.1159 4.71051C46.1131 4.30946 46.2219 3.96207 46.4424 3.66835C46.6657 3.37179 46.9753 3.14303 47.371 2.98204C47.7696 2.81823 48.2289 2.73633 48.7491 2.73633C49.5123 2.73633 50.113 2.89873 50.5511 3.22352C50.9921 3.54831 51.2649 3.98749 51.3695 4.54105Z" fill="#141D24"/>
<path id="Vector_44" d="M43.1072 6.59075V2.82031H44.6421V9.32749H43.1538V8.17094H43.086C42.939 8.53527 42.6973 8.83324 42.3609 9.06483C42.0273 9.29642 41.616 9.41222 41.127 9.41222C40.7002 9.41222 40.3228 9.3176 39.9949 9.12838C39.6698 8.93632 39.4154 8.65813 39.2317 8.2938C39.0479 7.92664 38.9561 7.48322 38.9561 6.96355V2.82031H40.491V6.72631C40.491 7.13866 40.6041 7.46628 40.8302 7.70917C41.0563 7.95206 41.3532 8.0735 41.7206 8.0735C41.9468 8.0735 42.1659 8.01843 42.3779 7.90828C42.5899 7.79813 42.7637 7.63432 42.8994 7.41685C43.0379 7.19656 43.1072 6.92119 43.1072 6.59075Z" fill="#141D24"/>
<path id="Vector_45" d="M34.2217 9.33085V2.82367H35.71V3.9082H35.7778C35.8965 3.53257 36.1001 3.24308 36.3884 3.03973C36.6796 2.83356 37.0117 2.73047 37.3848 2.73047C37.4696 2.73047 37.5643 2.73471 37.6689 2.74318C37.7763 2.74883 37.8654 2.75871 37.9361 2.77283V4.18357C37.871 4.16097 37.7679 4.1412 37.6265 4.12426C37.488 4.10449 37.3537 4.0946 37.2237 4.0946C36.9439 4.0946 36.6923 4.15533 36.469 4.27677C36.2485 4.39539 36.0746 4.56061 35.9474 4.77243C35.8202 4.98426 35.7566 5.22856 35.7566 5.50534V9.33085H34.2217Z" fill="#141D24"/>
<path id="Vector_46" d="M32.9247 2.82805V4.01426H29.1807V2.82805H32.9247ZM30.105 1.26904H31.64V7.37799C31.64 7.58417 31.6711 7.74233 31.7332 7.85248C31.7983 7.9598 31.8831 8.03323 31.9877 8.07277C32.0922 8.11231 32.2081 8.13208 32.3353 8.13208C32.4315 8.13208 32.5191 8.12502 32.5982 8.1109C32.6802 8.09678 32.7424 8.08407 32.7848 8.07277L33.0435 9.27168C32.9615 9.29993 32.8442 9.33099 32.6915 9.36488C32.5417 9.39878 32.358 9.41855 32.1403 9.4242C31.7559 9.43549 31.4096 9.37759 31.1015 9.2505C30.7933 9.12058 30.5488 8.92006 30.3679 8.64893C30.1898 8.37779 30.1022 8.03888 30.105 7.63218V1.26904Z" fill="#141D24"/>
<path id="Vector_47" d="M20.778 11.7677C20.5688 11.7677 20.3752 11.7507 20.1971 11.7168C20.0218 11.6858 19.8819 11.6491 19.7773 11.6067L20.1335 10.412C20.3568 10.477 20.5561 10.508 20.7313 10.5052C20.9066 10.5024 21.0607 10.4473 21.1935 10.34C21.3292 10.2355 21.4437 10.0604 21.537 9.81468L21.6684 9.46305L19.3066 2.82031H20.9349L22.4359 7.73459H22.5037L24.009 2.82031H25.6414L23.0337 10.1155C22.9122 10.46 22.7511 10.7552 22.5504 11.0009C22.3497 11.2494 22.1037 11.4386 21.8126 11.5686C21.5242 11.7013 21.1794 11.7677 20.778 11.7677Z" fill="#141D24"/>
<path id="Vector_48" d="M14.2722 5.51822V9.33102H12.7373V0.654785H14.2383V3.92956H14.3146C14.4673 3.5624 14.7033 3.27291 15.0228 3.06108C15.345 2.84644 15.7549 2.73912 16.2524 2.73912C16.7047 2.73912 17.099 2.83373 17.4354 3.02296C17.7718 3.21218 18.0319 3.48897 18.2156 3.8533C18.4022 4.21763 18.4954 4.66246 18.4954 5.18778V9.33102H16.9605V5.42502C16.9605 4.98725 16.8474 4.64693 16.6213 4.40404C16.398 4.15832 16.0842 4.03547 15.68 4.03547C15.4086 4.03547 15.1655 4.09478 14.9507 4.2134C14.7387 4.32919 14.5719 4.49724 14.4503 4.71753C14.3316 4.93783 14.2722 5.20472 14.2722 5.51822Z" fill="#141D24"/>
<path id="Vector_49" d="M2.62171 9.33102L0.170898 0.654785H1.86272L3.42735 7.03063H3.50791L5.17853 0.654785H6.71771L8.39258 7.03487H8.4689L10.0335 0.654785H11.7254L9.27453 9.33102H7.72263L5.98417 3.24325H5.91632L4.17361 9.33102H2.62171Z" fill="#141D24"/>
</g>
</svg>
