<svg width="24" height="24" viewBox="0 0 24 24" fill="none" xmlns="http://www.w3.org/2000/svg">
<g id="Others/earth">
<path id="Vector (Stroke)" fill-rule="evenodd" clip-rule="evenodd" d="M1.25 12C1.25 6.06294 6.06294 1.25 12 1.25C17.9371 1.25 22.75 6.06294 22.75 12C22.75 17.9371 17.9371 22.75 12 22.75C6.06294 22.75 1.25 17.9371 1.25 12ZM12 2.75C6.89136 2.75 2.75 6.89136 2.75 12C2.75 17.1086 6.89136 21.25 12 21.25C17.1086 21.25 21.25 17.1086 21.25 12C21.25 6.89136 17.1086 2.75 12 2.75Z" fill="white"/>
<path id="Vector (Stroke)_2" fill-rule="evenodd" clip-rule="evenodd" d="M1.25 12C1.25 11.5858 1.58579 11.25 2 11.25H22C22.4142 11.25 22.75 11.5858 22.75 12C22.75 12.4142 22.4142 12.75 22 12.75H2C1.58579 12.75 1.25 12.4142 1.25 12Z" fill="white"/>
<path id="Vector (Stroke)_3" fill-rule="evenodd" clip-rule="evenodd" d="M9.8981 2.27052C10.465 1.67106 11.175 1.25 12 1.25C12.825 1.25 13.535 1.67106 14.1019 2.27052C14.6673 2.86839 15.1419 3.69327 15.5248 4.65039C16.2921 6.56878 16.75 9.16759 16.75 12C16.75 14.8324 16.2921 17.4312 15.5248 19.3496C15.1419 20.3067 14.6673 21.1316 14.1019 21.7295C13.535 22.3289 12.825 22.75 12 22.75C11.175 22.75 10.465 22.3289 9.8981 21.7295C9.33269 21.1316 8.85806 20.3067 8.47521 19.3496C7.70786 17.4312 7.25 14.8324 7.25 12C7.25 9.16759 7.70786 6.56878 8.47521 4.65039C8.85806 3.69327 9.33269 2.86839 9.8981 2.27052ZM9.86793 5.20747C9.18757 6.90837 8.75 9.30956 8.75 12C8.75 14.6904 9.18757 17.0916 9.86793 18.7925C10.2089 19.6451 10.5962 20.2846 10.9879 20.6988C11.3781 21.1114 11.7204 21.25 12 21.25C12.2796 21.25 12.6219 21.1114 13.0121 20.6988C13.4038 20.2846 13.7911 19.6451 14.1321 18.7925C14.8124 17.0916 15.25 14.6904 15.25 12C15.25 9.30956 14.8124 6.90837 14.1321 5.20747C13.7911 4.35495 13.4038 3.71536 13.0121 3.30118C12.6219 2.88858 12.2796 2.75 12 2.75C11.7204 2.75 11.3781 2.88858 10.9879 3.30118C10.5962 3.71536 10.2089 4.35495 9.86793 5.20747Z" fill="white"/>
<path id="Vector (Stroke)_4" fill-rule="evenodd" clip-rule="evenodd" d="M4.39838 4.54071C4.69128 4.24782 5.16615 4.24782 5.45904 4.54072C7.13379 6.21547 9.44526 7.24999 11.9998 7.24999C14.5543 7.24999 16.8658 6.21546 18.5405 4.54071C18.8334 4.24782 19.3083 4.24782 19.6012 4.54071C19.8941 4.83361 19.8941 5.30848 19.6012 5.60137C17.6566 7.54593 14.9681 8.74999 11.9998 8.74999C9.03145 8.74999 6.34293 7.54592 4.39838 5.60137C4.10549 5.30848 4.10549 4.83361 4.39838 4.54071Z" fill="white"/>
<path id="Vector (Stroke)_5" fill-rule="evenodd" clip-rule="evenodd" d="M4.39838 18.3986C6.34293 16.4541 9.03145 15.25 11.9998 15.25C14.9681 15.25 17.6566 16.4541 19.6012 18.3986C19.8941 18.6915 19.8941 19.1664 19.6012 19.4593C19.3083 19.7522 18.8334 19.7522 18.5405 19.4593C16.8658 17.7845 14.5543 16.75 11.9998 16.75C9.44526 16.75 7.13379 17.7845 5.45904 19.4593C5.16615 19.7522 4.69128 19.7522 4.39838 19.4593C4.10549 19.1664 4.10549 18.6915 4.39838 18.3986Z" fill="white"/>
</g>
</svg>
