<svg width="24" height="24" viewBox="0 0 24 24" fill="none" xmlns="http://www.w3.org/2000/svg">
<g id="Frame">
<g id="Group">
<path id="Vector" d="M8.51167 5.84068H15.4877L17.6971 1.7618C17.7681 1.63058 17.7956 1.48014 17.7755 1.33226C17.7554 1.18439 17.6888 1.04673 17.5853 0.939233C17.4818 0.83173 17.3467 0.759952 17.1997 0.734285C17.0527 0.708619 16.9013 0.730394 16.7675 0.796461C15.1864 1.57712 13.8038 1.24398 12.2029 0.85843C10.6197 0.477102 8.82559 0.0449143 6.69555 0.760367C6.59833 0.793027 6.50944 0.846557 6.4351 0.917203C6.36076 0.98785 6.30278 1.0739 6.26521 1.16933C6.22764 1.26475 6.21141 1.36724 6.21764 1.46961C6.22387 1.57197 6.25242 1.67173 6.30128 1.7619L8.51167 5.84068ZM16.2232 7.53249C16.1318 7.43784 16.0398 7.34252 15.9472 7.24655H8.0522C7.95973 7.3424 7.86772 7.43771 7.77616 7.53249C6.35064 9.00737 5.00411 10.4005 4.00178 11.96C2.84931 13.7532 2.3125 15.511 2.3125 17.4922C2.3125 19.791 3.55192 21.546 5.89666 22.5675C7.90211 23.4411 10.3221 23.6245 11.9991 23.6245C13.6884 23.6245 16.1218 23.441 18.1214 22.5671C20.4541 21.5476 21.6871 19.7927 21.6871 17.4922C21.6871 15.511 21.1502 13.7531 19.9978 11.96C18.9955 10.4005 17.6489 9.00737 16.2232 7.53249ZM12.1437 14.0451C12.6473 14.151 13.168 14.2607 13.6146 14.555C14.1949 14.9376 14.4892 15.5288 14.4892 16.3123C14.4892 17.3467 13.7338 18.222 12.7021 18.5007V18.8634C12.7021 19.0499 12.628 19.2288 12.4961 19.3606C12.3643 19.4925 12.1854 19.5666 11.9989 19.5666C11.8125 19.5666 11.6336 19.4925 11.5018 19.3606C11.3699 19.2288 11.2958 19.0499 11.2958 18.8634V18.5007C10.2641 18.222 9.5087 17.3467 9.5087 16.3123C9.5087 16.1258 9.58278 15.947 9.71464 15.8151C9.84651 15.6833 10.0253 15.6092 10.2118 15.6092C10.3983 15.6092 10.5772 15.6833 10.709 15.8151C10.8409 15.947 10.915 16.1258 10.915 16.3123C10.915 16.7951 11.4012 17.1877 11.9989 17.1877C12.5966 17.1877 13.0829 16.795 13.0829 16.3123C13.0829 15.7686 12.9107 15.6435 11.8541 15.4212C11.3506 15.3152 10.8299 15.2056 10.3833 14.9113C9.80294 14.5287 9.5087 13.9374 9.5087 13.1539C9.5087 12.1189 10.2641 11.2432 11.2958 10.9643V10.6028C11.2958 10.4163 11.3699 10.2375 11.5018 10.1056C11.6336 9.97376 11.8125 9.89968 11.9989 9.89968C12.1854 9.89968 12.3643 9.97376 12.4961 10.1056C12.628 10.2375 12.7021 10.4163 12.7021 10.6028V10.9641C13.7338 11.243 14.4892 12.1188 14.4892 13.1538C14.4892 13.3403 14.4151 13.5191 14.2832 13.651C14.1514 13.7828 13.9725 13.8569 13.786 13.8569C13.5996 13.8569 13.4207 13.7828 13.2889 13.651C13.157 13.5191 13.0829 13.3403 13.0829 13.1538C13.0829 12.6704 12.5966 12.2772 11.9989 12.2772C11.4012 12.2772 10.915 12.6705 10.915 13.1538C10.9151 13.6978 11.0874 13.8227 12.1439 14.0451H12.1437Z" fill="white"/>
</g>
</g>
</svg>
