<svg width="24" height="24" viewBox="0 0 24 24" fill="none" xmlns="http://www.w3.org/2000/svg">
<g id="Frame">
<g id="Group">
<path id="Vector" fill-rule="evenodd" clip-rule="evenodd" d="M7.98217 2C8.39774 2 8.73554 2.34669 8.73554 2.77338V3.0245L8.88333 2.98672C10.9821 2.48167 13.1722 2.49464 15.2648 3.0245V2.77338C15.2648 2.34669 15.6026 2 16.0182 2C16.4337 2 16.7726 2.34669 16.7726 2.77338V3.58786C18.9205 4.65237 20.5262 6.66581 21.084 9.11039C21.5649 11.2156 21.5649 13.4022 21.084 15.5074C20.3895 18.5454 18.0783 20.9188 15.117 21.63C13.0684 22.1233 10.9319 22.1233 8.88333 21.63C5.92205 20.9188 3.61081 18.5465 2.91633 15.5074C2.43544 13.4022 2.43544 11.2156 2.91633 9.11039C3.47414 6.66581 5.07978 4.65237 7.22768 3.58786V2.77338C7.22768 2.34669 7.56548 2 7.98217 2ZM10.919 9.65375C11.0322 9.53633 11.0954 9.3796 11.0954 9.21651C11.0954 9.05342 11.0322 8.89668 10.919 8.77926C10.8638 8.72203 10.7976 8.67651 10.7243 8.64543C10.6511 8.61434 10.5724 8.59832 10.4929 8.59832C10.4133 8.59832 10.3346 8.61434 10.2614 8.64543C10.1882 8.67651 10.122 8.72203 10.0667 8.77926L8.48442 10.4038L7.90661 9.81043C7.85135 9.75303 7.78508 9.70736 7.71176 9.67617C7.63845 9.64498 7.55959 9.62891 7.47992 9.62891C7.40024 9.62891 7.32138 9.64498 7.24807 9.67617C7.17475 9.70736 7.10848 9.75303 7.05323 9.81043C6.94004 9.92785 6.8768 10.0846 6.8768 10.2477C6.8768 10.4108 6.94004 10.5675 7.05323 10.6849L8.05772 11.7161C8.11296 11.7733 8.17917 11.8188 8.25238 11.8499C8.32559 11.881 8.40432 11.897 8.48386 11.897C8.5634 11.897 8.64213 11.881 8.71534 11.8499C8.78855 11.8188 8.85475 11.7733 8.90999 11.7161L10.919 9.65375ZM13.0047 10.1438C12.8428 10.1461 12.6884 10.2126 12.5755 10.3287C12.4626 10.4447 12.4003 10.6008 12.4024 10.7627C12.4003 10.9246 12.4626 11.0807 12.5755 11.1968C12.6884 11.3128 12.8428 11.3793 13.0047 11.3816H16.5204C16.8538 11.3816 17.1238 11.1038 17.1238 10.7627C17.1259 10.6008 17.0636 10.4447 16.9507 10.3287C16.8378 10.2126 16.6834 10.1461 16.5215 10.1438H13.0047ZM10.919 14.8085C11.0322 14.6911 11.0954 14.5343 11.0954 14.3712C11.0954 14.2081 11.0322 14.0514 10.919 13.934C10.8638 13.8768 10.7976 13.8312 10.7243 13.8002C10.6511 13.7691 10.5724 13.753 10.4929 13.753C10.4133 13.753 10.3346 13.7691 10.2614 13.8002C10.1882 13.8312 10.122 13.8768 10.0667 13.934L8.48442 15.5563L7.90661 14.9629C7.85135 14.9055 7.78508 14.8599 7.71176 14.8287C7.63845 14.7975 7.55959 14.7814 7.47992 14.7814C7.40024 14.7814 7.32138 14.7975 7.24807 14.8287C7.17475 14.8599 7.10848 14.9055 7.05323 14.9629C6.94004 15.0804 6.8768 15.2371 6.8768 15.4002C6.8768 15.5633 6.94004 15.72 7.05323 15.8374L8.05772 16.8686C8.11296 16.9258 8.17917 16.9713 8.25238 17.0024C8.32559 17.0335 8.40432 17.0495 8.48386 17.0495C8.5634 17.0495 8.64213 17.0335 8.71534 17.0024C8.78855 16.9713 8.85475 16.9258 8.90999 16.8686L10.919 14.8085ZM13.0047 15.2985C12.8428 15.3009 12.6884 15.3673 12.5755 15.4834C12.4626 15.5994 12.4003 15.7555 12.4024 15.9174C12.4006 16.0791 12.463 16.235 12.5759 16.3508C12.6888 16.4666 12.843 16.5329 13.0047 16.5352H16.5204C16.8538 16.5352 17.1238 16.2586 17.1238 15.9174C17.1259 15.7555 17.0636 15.5994 16.9507 15.4834C16.8378 15.3673 16.6834 15.3009 16.5215 15.2985H13.0047Z" fill="white"/>
</g>
</g>
</svg>
