<svg width="24" height="24" viewBox="0 0 24 24" fill="none" xmlns="http://www.w3.org/2000/svg">
<g id="Frame">
<g id="Group">
<path id="Vector" d="M23.4086 11.7657C23.0378 11.3953 22.5448 11.1856 22.0209 11.1758L21.4934 11.1658L21.3558 10.6566C20.5416 7.64597 18.3438 5.28463 15.5608 4.18229C15.8943 4.77384 16.085 5.45618 16.085 6.18231C16.085 8.43478 14.2524 10.2673 12 10.2673C9.7475 10.2673 7.91495 8.43478 7.91495 6.18231H9.32028C9.32028 7.65988 10.5224 8.86201 12 8.86201C13.4775 8.86201 14.6797 7.65988 14.6797 6.18231C14.6797 4.70474 13.4775 3.50262 12 3.50262C11.8634 3.50262 11.7273 3.50552 11.5918 3.51119H11.4649C10.1465 3.50749 9.07505 2.434 9.07505 1.11481H7.66971C7.66971 2.02256 7.98994 2.85673 8.52285 3.51119H7.84248C6.52099 3.51119 5.44591 2.43611 5.44591 1.11462H4.04058C4.04058 2.95332 5.35269 4.49108 7.08969 4.84139C4.95662 6.09626 3.32151 8.1518 2.64419 10.6566L2.50651 11.1658L1.97909 11.1758C1.45518 11.1856 0.962187 11.3953 0.59085 11.7662C0.210004 12.1474 0 12.6547 0 13.194C0 14.2862 0.887891 15.1916 1.97918 15.2123L2.50656 15.2222L2.64423 15.7314C3.7833 19.9436 7.63051 22.8854 12 22.8854C16.3694 22.8854 20.2166 19.9436 21.3557 15.7314L21.4934 15.2222L22.0208 15.2123C23.1121 15.1916 24 14.2862 24 13.194C24 12.6547 23.79 12.1474 23.4086 11.7657ZM7.46332 12.3983C6.85017 12.3983 6.35132 12.8971 6.35132 13.5102H4.94599C4.94599 12.1222 6.07527 10.9929 7.46332 10.9929C8.85137 10.9929 9.98065 12.1222 9.98065 13.5102H8.57531C8.57536 12.8971 8.07651 12.3983 7.46332 12.3983ZM12 19.6303C10.4744 19.6303 9.04423 18.8127 8.26764 17.4967L9.47796 16.7825C10.003 17.6722 10.9694 18.2249 12 18.2249C13.0306 18.2249 13.9971 17.6722 14.5221 16.7825L15.7324 17.4967C14.9558 18.8127 13.5257 19.6303 12 19.6303ZM17.6487 13.5102C17.6487 12.8971 17.1498 12.3983 16.5367 12.3983C15.9235 12.3983 15.4247 12.8971 15.4247 13.5102H14.0193C14.0193 12.1222 15.1486 10.9929 16.5367 10.9929C17.9247 10.9929 19.054 12.1222 19.054 13.5102H17.6487Z" fill="white"/>
</g>
</g>
</svg>
