<svg width="24" height="24" viewBox="0 0 24 24" fill="none" xmlns="http://www.w3.org/2000/svg">
<g id="Frame">
<g id="Group">
<path id="Vector" d="M11.9995 22C13.34 22 14.4461 20.9109 14.5981 19.5071C14.6174 19.3289 14.4639 19.1754 14.2841 19.1754H9.71327C9.53355 19.1754 9.38006 19.3289 9.39934 19.5071C9.55206 20.9109 10.6574 22 11.9987 22H11.9995ZM8.51771 2.91201C7.41203 3.53031 6.5108 4.45781 5.92452 5.5808C4.53922 8.2519 4.98427 11.3434 6.8316 13.4383C8.43673 15.2586 9.2551 17.6698 9.31681 17.8557C9.36457 18.0145 9.46225 18.1537 9.59535 18.2526C9.72845 18.3515 9.8899 18.4049 10.0557 18.4049H11.0739C11.0946 18.4056 11.1152 18.4021 11.1346 18.3947C11.1539 18.3873 11.1716 18.376 11.1865 18.3616C11.2014 18.3472 11.2132 18.33 11.2213 18.3109C11.2294 18.2918 11.2336 18.2713 11.2336 18.2506L11.2282 12.8852L9.86213 11.52C9.79047 11.4484 9.73361 11.3634 9.69481 11.2698C9.65601 11.1762 9.63602 11.0759 9.63598 10.9746C9.63594 10.8732 9.65586 10.7729 9.6946 10.6793C9.73334 10.5857 9.79014 10.5006 9.86175 10.429C9.93336 10.3573 10.0184 10.3004 10.112 10.2616C10.2056 10.2228 10.3059 10.2028 10.4072 10.2028C10.5085 10.2028 10.6088 10.2227 10.7024 10.2614C10.7961 10.3002 10.8811 10.357 10.9528 10.4286L11.9995 11.4753L13.0462 10.4286C13.1178 10.3569 13.2028 10.3001 13.2964 10.2613C13.39 10.2224 13.4903 10.2025 13.5916 10.2024C13.6929 10.2024 13.7932 10.2223 13.8869 10.261C13.9805 10.2998 14.0655 10.3566 14.1372 10.4282C14.2089 10.4998 14.2657 10.5848 14.3045 10.6784C14.3433 10.772 14.3633 10.8723 14.3634 10.9736C14.3634 11.0749 14.3435 11.1753 14.3047 11.2689C14.266 11.3625 14.2092 11.4476 14.1376 11.5192L12.7708 12.8852L12.7654 18.2506C12.7654 18.2713 12.7696 18.2918 12.7776 18.3109C12.7857 18.33 12.7976 18.3472 12.8125 18.3616C12.8274 18.376 12.845 18.3873 12.8644 18.3947C12.8837 18.4021 12.9044 18.4056 12.9251 18.4049H13.9432C14.1341 18.4049 14.3182 18.3342 14.4599 18.2064C14.6017 18.0786 14.691 17.9028 14.7107 17.713C14.7223 17.6204 14.993 15.7415 16.966 13.6573C17.5368 13.0549 18.0143 12.36 18.3359 11.5948C18.901 10.2678 19.0359 8.79711 18.7217 7.38947C18.4075 5.98182 17.66 4.70808 16.5842 3.74736C14.4469 1.83833 11.2374 1.39481 8.51771 2.91201Z" fill="white"/>
</g>
</g>
</svg>
