<svg width="24" height="24" viewBox="0 0 24 24" fill="none" xmlns="http://www.w3.org/2000/svg">
<g id="Frame">
<g id="Group">
<path id="Vector" d="M21.75 3V21C21.75 22.2375 20.7375 23.25 19.5 23.25C19.9725 22.6275 20.25 21.8475 20.25 21V3C20.25 2.1525 19.9725 1.3725 19.5 0.75C20.7375 0.75 21.75 1.7625 21.75 3ZM10.5 13.4325C10.7423 13.1242 11.133 12.1275 11.2275 10.5H9.7725C9.867 12.1275 10.2577 13.1242 10.5 13.4325ZM6.82575 10.5C7.04625 11.5807 7.7415 12.48 8.6745 13.005C8.4495 12.2723 8.31825 11.4 8.271 10.5H6.82575ZM9.77175 9H11.2282C11.133 7.3725 10.7423 6.37575 10.5 6.0675C10.2577 6.37575 9.86625 7.3725 9.77175 9ZM6.82575 9H8.271C8.31825 8.1 8.4495 7.22775 8.6745 6.495C7.7415 7.02 7.04625 7.91925 6.82575 9ZM18.75 3V21C18.75 22.2405 17.7405 23.25 16.5 23.25H4.5C3.2595 23.25 2.25 22.2405 2.25 21V3C2.25 1.7595 3.2595 0.75 4.5 0.75H16.5C17.7405 0.75 18.75 1.7595 18.75 3ZM13.5 18H7.5V19.5H13.5V18ZM15.75 9.75C15.75 6.855 13.395 4.5 10.5 4.5C7.605 4.5 5.25 6.855 5.25 9.75C5.25 12.645 7.605 15 10.5 15C13.395 15 15.75 12.645 15.75 9.75ZM12.3255 6.495C12.5505 7.22775 12.6818 8.1 12.729 9H14.1735C13.9538 7.91925 13.2585 7.02 12.3255 6.495ZM12.3255 13.005C13.2585 12.48 13.9538 11.5807 14.1735 10.5H12.729C12.6818 11.4 12.5505 12.2723 12.3255 13.005Z" fill="white"/>
</g>
</g>
</svg>
